<svg width="206" height="120" viewBox="0 0 206 120" fill="none" xmlns="http://www.w3.org/2000/svg">
<path d="M49.2793 111.726V110.948H52.4954V111.726L51.4931 111.898V114.981H55.8345V111.898L54.8322 111.726V110.948H58.0483V111.726L57.0459 111.898V118.927L58.0483 119.099V119.871H54.8322V119.099L55.8345 118.927V115.931H51.4931V118.927L52.4954 119.099V119.871H49.2793V119.099L50.2816 118.927V111.898L49.2793 111.726Z" fill="#999591"/>
<path d="M63.4105 119.871C63.3736 119.691 63.3449 119.53 63.3244 119.387C63.3039 119.244 63.2896 119.101 63.2814 118.958C63.0477 119.256 62.7546 119.506 62.402 119.706C62.0536 119.902 61.6805 120 61.2828 120C60.59 120 60.0632 119.832 59.7025 119.497C59.3417 119.158 59.1613 118.682 59.1613 118.069C59.1613 117.44 59.4155 116.956 59.9238 116.617C60.4363 116.274 61.1373 116.102 62.0269 116.102H63.2752V115.33C63.2752 114.942 63.1523 114.635 62.9063 114.411C62.6603 114.182 62.318 114.067 61.8793 114.067C61.576 114.067 61.3074 114.106 61.0738 114.184C60.8442 114.261 60.6577 114.368 60.5142 114.503L60.385 115.201H59.4503V113.914C59.7537 113.673 60.1206 113.481 60.5511 113.338C60.9815 113.191 61.4489 113.117 61.9531 113.117C62.7074 113.117 63.3183 113.31 63.7856 113.694C64.253 114.078 64.4867 114.627 64.4867 115.342V118.535C64.4867 118.621 64.4867 118.705 64.4867 118.786C64.4908 118.868 64.4969 118.95 64.5051 119.032L64.9971 119.099V119.871H63.4105ZM61.4612 118.989C61.8629 118.989 62.2298 118.893 62.5619 118.701C62.894 118.509 63.1318 118.278 63.2752 118.008V116.917H61.9839C61.4878 116.917 61.0943 117.032 60.8032 117.26C60.5162 117.489 60.3727 117.767 60.3727 118.094C60.3727 118.384 60.4629 118.607 60.6433 118.762C60.8237 118.913 61.0963 118.989 61.4612 118.989Z" fill="#999591"/>
<path d="M66.0056 119.099L67.0079 118.927V114.19L66.0056 114.018V113.24H68.2193V118.927L69.2217 119.099V119.871H66.0056V119.099ZM68.2193 111.542H67.0079V110.311H68.2193V111.542Z" fill="#999591"/>
<path d="M70.1502 114.018V113.24H72.2349L72.3517 114.202C72.5403 113.863 72.7719 113.598 73.0466 113.406C73.3253 113.213 73.6431 113.117 73.9997 113.117C74.094 113.117 74.1904 113.126 74.2887 113.142C74.3912 113.154 74.4691 113.169 74.5224 113.185L74.3625 114.306L73.6738 114.27C73.354 114.27 73.0855 114.345 72.8682 114.496C72.651 114.644 72.4829 114.852 72.364 115.122V118.927L73.3663 119.099V119.871H70.1502V119.099L71.1526 118.927V114.19L70.1502 114.018Z" fill="#999591"/>
<path d="M78.2305 119.056C78.6322 119.056 78.9848 118.934 79.2882 118.688C79.5956 118.439 79.7494 118.135 79.7494 117.775H80.8378L80.8501 117.812C80.8706 118.384 80.6144 118.893 80.0814 119.338C79.5526 119.779 78.9356 120 78.2305 120C77.263 120 76.523 119.685 76.0106 119.056C75.5022 118.427 75.248 117.636 75.248 116.684V116.427C75.248 115.483 75.5043 114.697 76.0167 114.067C76.5292 113.434 77.2671 113.117 78.2305 113.117C78.7634 113.117 79.241 113.205 79.6633 113.381C80.0896 113.557 80.4422 113.798 80.721 114.104L80.7763 115.575H79.8109L79.5464 114.533C79.403 114.394 79.2185 114.282 78.993 114.196C78.7675 114.11 78.5133 114.067 78.2305 114.067C77.595 114.067 77.14 114.296 76.8653 114.754C76.5947 115.207 76.4595 115.765 76.4595 116.427V116.684C76.4595 117.363 76.5947 117.928 76.8653 118.382C77.1359 118.831 77.5909 119.056 78.2305 119.056Z" fill="#999591"/>
<path d="M86.7904 118.891C86.5813 119.246 86.3107 119.52 85.9787 119.712C85.6507 119.904 85.2715 120 84.841 120C84.1195 120 83.5558 119.769 83.15 119.307C82.7441 118.846 82.5412 118.127 82.5412 117.15V114.19L81.7787 114.018V113.24H83.7526V117.162C83.7526 117.869 83.8571 118.355 84.0662 118.621C84.2753 118.887 84.6012 119.019 85.044 119.019C85.4744 119.019 85.829 118.934 86.1078 118.762C86.3907 118.586 86.6039 118.339 86.7473 118.02V114.19L85.8557 114.018V113.24H87.9588V118.927L88.7213 119.099V119.871H86.8703L86.7904 118.891Z" fill="#999591"/>
<path d="M91.796 111.64V113.24H93.0566V114.135H91.796V118.161C91.796 118.472 91.8595 118.69 91.9866 118.817C92.1178 118.944 92.29 119.007 92.5031 119.007C92.6097 119.007 92.7286 118.999 92.8598 118.983C92.9951 118.962 93.1078 118.942 93.198 118.921L93.3641 119.749C93.2493 119.822 93.0812 119.881 92.8598 119.926C92.6384 119.975 92.4171 120 92.1957 120C91.7037 120 91.3122 119.853 91.0211 119.559C90.7301 119.26 90.5845 118.795 90.5845 118.161V114.135H89.533V113.24H90.5845V111.64H91.796Z" fill="#999591"/>
<path d="M99.3843 115.324H98.4742L98.2774 114.527C98.1298 114.388 97.9433 114.278 97.7178 114.196C97.4964 114.11 97.2443 114.067 96.9614 114.067C96.531 114.067 96.2112 114.161 96.0021 114.349C95.793 114.537 95.6885 114.764 95.6885 115.03C95.6885 115.291 95.7807 115.497 95.9652 115.649C96.1497 115.8 96.5248 115.935 97.0906 116.053C97.931 116.233 98.5562 116.478 98.9661 116.789C99.3761 117.095 99.5811 117.508 99.5811 118.027C99.5811 118.615 99.3412 119.091 98.8616 119.455C98.386 119.818 97.7629 120 96.9922 120C96.4879 120 96.0349 119.943 95.6332 119.828C95.2314 119.71 94.8727 119.54 94.557 119.32L94.5509 117.806H95.461L95.6885 118.695C95.8279 118.821 96.0165 118.913 96.2543 118.97C96.4961 119.028 96.7421 119.056 96.9922 119.056C97.4226 119.056 97.7588 118.97 98.0007 118.799C98.2466 118.623 98.3696 118.394 98.3696 118.112C98.3696 117.847 98.2671 117.628 98.0622 117.457C97.8613 117.285 97.478 117.136 96.9122 117.009C96.1046 116.833 95.4958 116.594 95.0859 116.292C94.6759 115.99 94.4709 115.581 94.4709 115.066C94.4709 114.527 94.7005 114.067 95.1597 113.687C95.6229 113.307 96.2235 113.117 96.9614 113.117C97.4657 113.117 97.9187 113.183 98.3204 113.314C98.7222 113.444 99.0563 113.626 99.3228 113.859L99.3843 115.324Z" fill="#999591"/>
<path d="M103.756 117.469C103.756 116.97 103.9 116.535 104.187 116.163C104.478 115.788 104.91 115.412 105.484 115.036C105.165 114.631 104.927 114.272 104.771 113.957C104.615 113.638 104.537 113.312 104.537 112.977C104.537 112.286 104.736 111.755 105.134 111.383C105.536 111.007 106.087 110.819 106.788 110.819C107.436 110.819 107.963 111.005 108.368 111.377C108.774 111.749 108.977 112.196 108.977 112.719C108.977 113.12 108.869 113.467 108.651 113.761C108.438 114.051 108.12 114.349 107.698 114.656L107.028 115.146L109.119 117.653C109.287 117.387 109.418 117.093 109.512 116.77C109.607 116.447 109.654 116.106 109.654 115.747H110.736C110.736 116.282 110.656 116.778 110.496 117.236C110.336 117.694 110.105 118.104 109.801 118.468L110.939 119.841L110.927 119.871H109.518L108.996 119.246C108.668 119.491 108.305 119.679 107.907 119.81C107.51 119.937 107.098 120 106.671 120C105.782 120 105.072 119.765 104.544 119.295C104.019 118.825 103.756 118.217 103.756 117.469ZM106.671 119.056C106.966 119.056 107.258 119.007 107.544 118.909C107.831 118.807 108.102 118.662 108.356 118.474L106.136 115.808L105.89 115.986C105.517 116.264 105.269 116.529 105.146 116.782C105.027 117.036 104.968 117.265 104.968 117.469C104.968 117.931 105.113 118.31 105.404 118.609C105.696 118.907 106.118 119.056 106.671 119.056ZM105.749 112.964C105.749 113.181 105.804 113.408 105.915 113.645C106.026 113.877 106.192 114.133 106.413 114.411L107.262 113.828C107.495 113.673 107.653 113.506 107.735 113.326C107.821 113.142 107.864 112.94 107.864 112.719C107.864 112.47 107.764 112.249 107.563 112.057C107.366 111.865 107.108 111.769 106.788 111.769C106.456 111.769 106.2 111.886 106.019 112.119C105.839 112.347 105.749 112.629 105.749 112.964Z" fill="#999591"/>
<path d="M121.288 113.583H120.372L120.145 112.308C119.96 112.153 119.714 112.025 119.407 111.922C119.099 111.82 118.742 111.769 118.337 111.769C117.693 111.769 117.199 111.906 116.855 112.18C116.51 112.449 116.338 112.803 116.338 113.24C116.338 113.628 116.512 113.953 116.861 114.215C117.213 114.472 117.781 114.699 118.564 114.895C119.507 115.128 120.222 115.471 120.71 115.924C121.202 116.378 121.448 116.94 121.448 117.61C121.448 118.329 121.153 118.907 120.563 119.344C119.976 119.781 119.208 120 118.257 120C117.568 120 116.955 119.888 116.418 119.663C115.885 119.438 115.45 119.144 115.114 118.78V117.119H116.024L116.258 118.4C116.492 118.592 116.771 118.75 117.094 118.872C117.418 118.995 117.806 119.056 118.257 119.056C118.867 119.056 119.349 118.927 119.702 118.67C120.058 118.413 120.237 118.063 120.237 117.622C120.237 117.213 120.083 116.872 119.776 116.599C119.468 116.321 118.925 116.088 118.146 115.9C117.199 115.675 116.459 115.344 115.926 114.907C115.393 114.47 115.127 113.92 115.127 113.258C115.127 112.56 115.424 111.98 116.018 111.518C116.613 111.052 117.385 110.819 118.337 110.819C118.964 110.819 119.534 110.927 120.046 111.144C120.563 111.357 120.977 111.616 121.288 111.922V113.583Z" fill="#999591"/>
<path d="M122.426 119.099L123.428 118.927V111.26L122.426 111.089V110.311H124.64V114.123C124.869 113.804 125.15 113.557 125.482 113.381C125.814 113.205 126.183 113.117 126.589 113.117C127.302 113.117 127.856 113.33 128.249 113.755C128.643 114.18 128.84 114.833 128.84 115.716V118.927L129.842 119.099V119.871H126.626V119.099L127.628 118.927V115.704C127.628 115.156 127.509 114.752 127.272 114.49C127.038 114.229 126.687 114.098 126.22 114.098C125.888 114.098 125.585 114.178 125.31 114.337C125.039 114.492 124.816 114.705 124.64 114.974V118.927L125.642 119.099V119.871H122.426V119.099Z" fill="#999591"/>
<path d="M135.063 119.871C135.026 119.691 134.997 119.53 134.977 119.387C134.956 119.244 134.942 119.101 134.934 118.958C134.7 119.256 134.407 119.506 134.054 119.706C133.706 119.902 133.333 120 132.935 120C132.242 120 131.716 119.832 131.355 119.497C130.994 119.158 130.814 118.682 130.814 118.069C130.814 117.44 131.068 116.956 131.576 116.617C132.089 116.274 132.79 116.102 133.679 116.102H134.928V115.33C134.928 114.942 134.805 114.635 134.559 114.411C134.313 114.182 133.97 114.067 133.532 114.067C133.228 114.067 132.96 114.106 132.726 114.184C132.497 114.261 132.31 114.368 132.167 114.503L132.037 115.201H131.103V113.914C131.406 113.673 131.773 113.481 132.203 113.338C132.634 113.191 133.101 113.117 133.605 113.117C134.36 113.117 134.971 113.31 135.438 113.694C135.905 114.078 136.139 114.627 136.139 115.342V118.535C136.139 118.621 136.139 118.705 136.139 118.786C136.143 118.868 136.149 118.95 136.157 119.032L136.649 119.099V119.871H135.063ZM133.114 118.989C133.515 118.989 133.882 118.893 134.214 118.701C134.546 118.509 134.784 118.278 134.928 118.008V116.917H133.636C133.14 116.917 132.747 117.032 132.456 117.26C132.169 117.489 132.025 117.767 132.025 118.094C132.025 118.384 132.115 118.607 132.296 118.762C132.476 118.913 132.749 118.989 133.114 118.989Z" fill="#999591"/>
<path d="M139.841 114.018L139.041 114.141L140.413 117.916L140.523 118.394H140.56L140.677 117.916L142.005 114.141L141.2 114.018V113.24H143.77V114.018L143.223 114.11L140.991 119.871H140.075L137.818 114.11L137.27 114.018V113.24H139.841V114.018Z" fill="#999591"/>
<path d="M147.546 120C146.62 120 145.882 119.694 145.332 119.081C144.787 118.464 144.514 117.665 144.514 116.684V116.415C144.514 115.471 144.795 114.686 145.357 114.061C145.923 113.432 146.591 113.117 147.362 113.117C148.255 113.117 148.932 113.387 149.391 113.926C149.854 114.466 150.086 115.185 150.086 116.084V116.838H145.769L145.75 116.868C145.763 117.506 145.925 118.031 146.236 118.443C146.548 118.852 146.984 119.056 147.546 119.056C147.956 119.056 148.315 118.999 148.622 118.885C148.934 118.766 149.202 118.605 149.428 118.4L149.901 119.185C149.663 119.414 149.348 119.608 148.954 119.767C148.565 119.922 148.095 120 147.546 120ZM147.362 114.067C146.956 114.067 146.609 114.239 146.322 114.582C146.035 114.921 145.859 115.348 145.793 115.863L145.806 115.894H148.874V115.734C148.874 115.26 148.747 114.864 148.493 114.545C148.239 114.227 147.862 114.067 147.362 114.067Z" fill="#999591"/>
<path d="M156.377 115.324H155.466L155.27 114.527C155.122 114.388 154.936 114.278 154.71 114.196C154.489 114.11 154.237 114.067 153.954 114.067C153.523 114.067 153.203 114.161 152.994 114.349C152.785 114.537 152.681 114.764 152.681 115.03C152.681 115.291 152.773 115.497 152.957 115.649C153.142 115.8 153.517 115.935 154.083 116.053C154.923 116.233 155.548 116.478 155.958 116.789C156.368 117.095 156.573 117.508 156.573 118.027C156.573 118.615 156.333 119.091 155.854 119.455C155.378 119.818 154.755 120 153.984 120C153.48 120 153.027 119.943 152.625 119.828C152.224 119.71 151.865 119.54 151.549 119.32L151.543 117.806H152.453L152.681 118.695C152.82 118.821 153.009 118.913 153.247 118.97C153.488 119.028 153.734 119.056 153.984 119.056C154.415 119.056 154.751 118.97 154.993 118.799C155.239 118.623 155.362 118.394 155.362 118.112C155.362 117.847 155.259 117.628 155.054 117.457C154.854 117.285 154.47 117.136 153.904 117.009C153.097 116.833 152.488 116.594 152.078 116.292C151.668 115.99 151.463 115.581 151.463 115.066C151.463 114.527 151.693 114.067 152.152 113.687C152.615 113.307 153.216 113.117 153.954 113.117C154.458 113.117 154.911 113.183 155.313 113.314C155.714 113.444 156.049 113.626 156.315 113.859L156.377 115.324Z" fill="#999591"/>
<path d="M74.4546 8.15111L75.1187 8.05918L78.2487 0H79.288L82.3627 8.05918L83.0206 8.15111V8.92332H80.4502V8.15111L81.1266 8.03467L80.5363 6.39219H76.9512L76.3424 8.03467L77.0189 8.15111V8.92332H74.4546V8.15111ZM77.3263 5.38096H80.1673L78.7776 1.55055H78.7407L77.3263 5.38096Z" fill="#999591"/>
<path d="M85.4865 3.07046L84.724 3.20529L85.5911 6.50863L85.7325 7.31149H85.7694L85.9416 6.50863L87.2699 2.29212H88.2415L89.5759 6.50863L89.7665 7.40342H89.8034L89.9817 6.50863L90.7996 3.20529L90.0248 3.07046V2.29212H92.5583V3.07046L91.9803 3.15626L90.3015 8.92332H89.3237L88.0324 4.88454L87.7557 3.76912L87.7188 3.77525L87.4605 4.88454L86.1937 8.92332H85.216L83.5372 3.15626L82.953 3.07046V2.29212H85.4865V3.07046Z" fill="#999591"/>
<path d="M96.58 9.05202C95.6535 9.05202 94.9156 8.74559 94.3662 8.13273C93.821 7.51577 93.5483 6.71701 93.5483 5.73642V5.46676C93.5483 4.52295 93.8292 3.73848 94.3908 3.11336C94.9566 2.48415 95.6248 2.16954 96.3955 2.16954C97.2892 2.16954 97.9656 2.4392 98.4248 2.97853C98.888 3.51785 99.1197 4.23694 99.1197 5.13581V5.88964H94.8028L94.7844 5.92028C94.7967 6.55766 94.9586 7.08268 95.2702 7.49535C95.5817 7.90392 96.0183 8.10821 96.58 8.10821C96.9899 8.10821 97.3487 8.05101 97.6561 7.93661C97.9677 7.81812 98.2362 7.65673 98.4617 7.45245L98.9352 8.23691C98.6974 8.46572 98.3817 8.65979 97.9882 8.81914C97.5987 8.97439 97.1293 9.05202 96.58 9.05202ZM96.3955 3.11949C95.9896 3.11949 95.6432 3.29109 95.3563 3.63429C95.0693 3.97341 94.893 4.40037 94.8274 4.91518L94.8397 4.94582H97.9082V4.78648C97.9082 4.31253 97.7812 3.91621 97.527 3.59752C97.2728 3.27883 96.8956 3.11949 96.3955 3.11949Z" fill="#999591"/>
<path d="M105.41 4.37586H104.5L104.304 3.57913C104.156 3.44022 103.969 3.3299 103.744 3.24819C103.523 3.16239 103.27 3.11949 102.988 3.11949C102.557 3.11949 102.237 3.21346 102.028 3.4014C101.819 3.58935 101.715 3.81611 101.715 4.08168C101.715 4.34317 101.807 4.54951 101.991 4.70068C102.176 4.85185 102.551 4.98668 103.117 5.10517C103.957 5.28494 104.582 5.53009 104.992 5.84061C105.402 6.14704 105.607 6.5597 105.607 7.0786C105.607 7.66695 105.367 8.14294 104.888 8.50657C104.412 8.87021 103.789 9.05202 103.018 9.05202C102.514 9.05202 102.061 8.99482 101.659 8.88042C101.258 8.76193 100.899 8.59237 100.583 8.37174L100.577 6.85797H101.487L101.715 7.74662C101.854 7.87328 102.043 7.96521 102.28 8.02241C102.522 8.07961 102.768 8.10821 103.018 8.10821C103.449 8.10821 103.785 8.02241 104.027 7.85081C104.273 7.67512 104.396 7.44632 104.396 7.1644C104.396 6.89882 104.293 6.68023 104.088 6.50863C103.887 6.33703 103.504 6.1879 102.938 6.06124C102.131 5.88555 101.522 5.64653 101.112 5.34419C100.702 5.04184 100.497 4.63326 100.497 4.11846C100.497 3.57913 100.727 3.11949 101.186 2.73951C101.649 2.35953 102.25 2.16954 102.988 2.16954C103.492 2.16954 103.945 2.23492 104.347 2.36566C104.748 2.49641 105.082 2.67822 105.349 2.91111L105.41 4.37586Z" fill="#999591"/>
<path d="M106.745 5.54643C106.745 4.56585 107.011 3.75891 107.544 3.12561C108.077 2.48823 108.801 2.16954 109.715 2.16954C110.633 2.16954 111.359 2.48619 111.892 3.11949C112.429 3.75278 112.697 4.56176 112.697 5.54643V5.68126C112.697 6.67002 112.431 7.479 111.898 8.10821C111.365 8.73742 110.642 9.05202 109.727 9.05202C108.805 9.05202 108.077 8.73742 107.544 8.10821C107.011 7.47492 106.745 6.66593 106.745 5.68126V5.54643ZM107.956 5.68126C107.956 6.38402 108.104 6.9642 108.399 7.4218C108.698 7.87941 109.141 8.10821 109.727 8.10821C110.301 8.10821 110.738 7.87941 111.037 7.4218C111.336 6.9642 111.486 6.38402 111.486 5.68126V5.54643C111.486 4.85185 111.336 4.27372 111.037 3.81202C110.738 3.35033 110.297 3.11949 109.715 3.11949C109.133 3.11949 108.694 3.35033 108.399 3.81202C108.104 4.27372 107.956 4.85185 107.956 5.54643V5.68126Z" fill="#999591"/>
<path d="M113.571 8.15111L114.573 7.97951V3.24206L113.571 3.07046V2.29212H115.661L115.741 3.15626C115.955 2.84165 116.229 2.59855 116.565 2.42695C116.902 2.25535 117.291 2.16954 117.734 2.16954C118.177 2.16954 118.556 2.27169 118.871 2.47598C119.191 2.68027 119.431 2.9867 119.591 3.39528C119.8 3.01938 120.077 2.72112 120.421 2.50049C120.765 2.27986 121.167 2.16954 121.626 2.16954C122.307 2.16954 122.844 2.40243 123.237 2.86821C123.631 3.3299 123.828 4.02653 123.828 4.95808V7.97951L124.83 8.15111V8.92332H121.608V8.15111L122.61 7.97951V4.94582C122.61 4.2921 122.497 3.83041 122.272 3.56075C122.047 3.287 121.712 3.15013 121.27 3.15013C120.847 3.15013 120.507 3.29926 120.249 3.59752C119.995 3.8917 119.847 4.2635 119.806 4.71294V7.97951L120.808 8.15111V8.92332H117.592V8.15111L118.595 7.97951V4.94582C118.595 4.32479 118.478 3.87127 118.244 3.58526C118.015 3.29517 117.68 3.15013 117.242 3.15013C116.873 3.15013 116.569 3.22572 116.332 3.37689C116.094 3.52806 115.912 3.74052 115.784 4.01427V7.97951L116.787 8.15111V8.92332H113.571V8.15111Z" fill="#999591"/>
<path d="M128.692 9.05202C127.765 9.05202 127.028 8.74559 126.478 8.13273C125.933 7.51577 125.66 6.71701 125.66 5.73642V5.46676C125.66 4.52295 125.941 3.73848 126.503 3.11336C127.069 2.48415 127.737 2.16954 128.507 2.16954C129.401 2.16954 130.078 2.4392 130.537 2.97853C131 3.51785 131.232 4.23694 131.232 5.13581V5.88964H126.915L126.896 5.92028C126.909 6.55766 127.071 7.08268 127.382 7.49535C127.694 7.90392 128.13 8.10821 128.692 8.10821C129.102 8.10821 129.461 8.05101 129.768 7.93661C130.08 7.81812 130.348 7.65673 130.574 7.45245L131.047 8.23691C130.809 8.46572 130.494 8.65979 130.1 8.81914C129.711 8.97439 129.241 9.05202 128.692 9.05202ZM128.507 3.11949C128.102 3.11949 127.755 3.29109 127.468 3.63429C127.181 3.97341 127.005 4.40037 126.939 4.91518L126.952 4.94582H130.02V4.78648C130.02 4.31253 129.893 3.91621 129.639 3.59752C129.385 3.27883 129.008 3.11949 128.507 3.11949Z" fill="#999591"/>
<rect y="94.9907" width="206" height="1.79307" fill="#FF9000"/>
<rect y="23.2678" width="206" height="1.79307" fill="#FF9000"/>
<path d="M47.7126 58.0319V70.6336C47.7126 71.7047 47.4944 72.7255 47.0578 73.6962C46.6548 74.6334 46.1006 75.4534 45.3954 76.1563C44.6901 76.8592 43.8505 77.4114 42.8766 77.8131C41.9363 78.2482 40.9287 78.4657 39.8541 78.4657C38.7794 78.4657 37.7719 78.2649 36.8315 77.8633C35.8912 77.4616 35.0684 76.9261 34.3631 76.2567C33.6579 75.5538 33.0869 74.7505 32.6504 73.8468C32.2474 72.9096 32.0291 71.9055 31.9955 70.8344V61.5463C31.8947 60.5088 31.4246 59.7557 30.585 59.2871C31.0551 59.0528 31.5253 58.9356 31.9955 58.9356V47.087C32.0291 46.016 32.2474 45.0119 32.6504 44.0747C33.0869 43.1375 33.6579 42.3342 34.3631 41.6648C35.0684 40.9619 35.8912 40.4096 36.8315 40.008C37.7719 39.6063 38.7794 39.4055 39.8541 39.4055C40.9287 39.4055 41.9363 39.6231 42.8766 40.0582C43.8505 40.4598 44.6901 41.0121 45.3954 41.715C46.1006 42.4179 46.6548 43.2546 47.0578 44.2253C47.4944 45.1625 47.7126 46.1833 47.7126 47.2879C47.7126 47.8569 47.763 48.2752 47.8638 48.543C47.9981 48.8108 48.1324 49.0283 48.2668 49.1957C48.4011 49.363 48.5187 49.5137 48.6194 49.6475C48.7537 49.7814 48.8209 49.999 48.8209 50.3002H46.2014C45.664 50.2333 45.3954 49.9488 45.3954 49.4467C45.3954 49.9488 45.1267 50.2333 44.5894 50.3002H41.9195C41.9195 49.999 41.9698 49.7814 42.0706 49.6475C42.2049 49.5137 42.3393 49.363 42.4736 49.1957C42.6079 49.0283 42.7255 48.8108 42.8262 48.543C42.9606 48.2752 43.0277 47.8401 43.0277 47.2376V47.1874C43.0277 46.7523 43.0109 46.2335 42.9773 45.6311C42.9438 44.9951 42.8262 44.3926 42.6247 43.8236C42.4232 43.2546 42.1042 42.7693 41.6676 42.3677C41.231 41.966 40.6265 41.7652 39.8541 41.7652C39.0481 41.7652 38.4268 41.9828 37.9902 42.4179C37.5872 42.8195 37.2849 43.3048 37.0834 43.8738C36.8819 44.4428 36.7644 45.0453 36.7308 45.6813C36.6972 46.3172 36.6804 46.8527 36.6804 47.2879V58.9356C37.1506 58.9356 37.6207 59.0528 38.0909 59.2871C37.2513 59.7557 36.7812 60.5088 36.6804 61.5463V70.6336C36.6804 71.0687 36.6972 71.6043 36.7308 72.2402C36.7644 72.8427 36.8819 73.4451 37.0834 74.0476C37.2849 74.6166 37.5872 75.1019 37.9902 75.5036C38.4268 75.9052 39.0481 76.1061 39.8541 76.1061C40.6601 76.1061 41.2646 75.9052 41.6676 75.5036C42.1042 75.1019 42.4232 74.6166 42.6247 74.0476C42.8262 73.4451 42.9438 72.8427 42.9773 72.2402C43.0109 71.6043 43.0277 71.0687 43.0277 70.6336V60.3414C42.6583 60.3749 42.3393 60.5255 42.0706 60.7933C41.8355 61.061 41.718 61.379 41.718 61.7472V61.7974C41.6844 62.2994 41.55 62.7345 41.315 63.1027C41.1135 63.4374 40.8112 63.7387 40.4082 64.0064C40.0052 64.2407 39.4175 64.3579 38.645 64.3579V58.0319H47.7126ZM34.7158 56.576C34.7158 56.3751 34.699 56.1743 34.6654 55.9735C34.6654 55.7727 34.6654 55.5886 34.6654 55.4212V54.2665C34.6318 53.5301 34.615 52.8272 34.615 52.1578C34.615 51.4884 34.5982 50.8525 34.5646 50.25C34.531 49.9488 34.5143 49.681 34.5143 49.4467C34.5143 49.1789 34.4975 48.9112 34.4639 48.6434C34.4639 48.4091 34.4471 48.1916 34.4135 47.9907C34.4135 47.7564 34.4135 47.5556 34.4135 47.3883C34.4135 47.2209 34.3967 47.0703 34.3631 46.9364C34.3631 46.8025 34.3631 46.6854 34.3631 46.585V46.3339C34.3295 46.3339 34.3128 46.3507 34.3128 46.3841V46.585C34.3128 46.6854 34.296 46.8025 34.2624 46.9364C34.2624 47.0703 34.2624 47.2209 34.2624 47.3883C34.2624 47.5556 34.2456 47.7564 34.212 47.9907C34.212 48.1916 34.212 48.4091 34.212 48.6434C34.1784 48.9112 34.1616 49.1789 34.1616 49.4467C34.1616 49.681 34.1448 49.9488 34.1112 50.25C34.0777 50.8525 34.0609 51.4884 34.0609 52.1578C34.0609 52.8272 34.0441 53.5301 34.0105 54.2665V55.4212C34.0105 55.5886 33.9937 55.7727 33.9601 55.9735C33.9601 56.1743 33.9601 56.3751 33.9601 56.576V61.2451C33.9601 61.3455 33.9601 61.4459 33.9601 61.5463C33.9937 61.6468 34.0105 61.7304 34.0105 61.7974V63.5044C34.0105 63.8725 34.0105 64.2407 34.0105 64.6089C34.0441 64.9436 34.0609 65.2783 34.0609 65.613C34.0609 65.9812 34.0609 66.3326 34.0609 66.6673C34.0945 66.9686 34.1112 67.2531 34.1112 67.5208C34.1448 67.8221 34.1616 68.1066 34.1616 68.3743C34.1616 68.6421 34.1784 68.8931 34.212 69.1274C34.212 69.3952 34.212 69.6295 34.212 69.8303C34.2456 70.0311 34.2624 70.2152 34.2624 70.3826C34.2624 70.5499 34.2624 70.7006 34.2624 70.8344C34.296 70.9683 34.3128 71.0855 34.3128 71.1859V71.4369C34.3128 71.4704 34.3295 71.4871 34.3631 71.4871V71.1859C34.3631 71.0855 34.3631 70.9683 34.3631 70.8344C34.3967 70.7006 34.4135 70.5499 34.4135 70.3826C34.4135 70.2152 34.4135 70.0311 34.4135 69.8303C34.4471 69.6295 34.4639 69.3952 34.4639 69.1274C34.4975 68.8931 34.5143 68.6421 34.5143 68.3743C34.5143 68.1066 34.531 67.8221 34.5646 67.5208C34.5646 67.2531 34.5646 66.9686 34.5646 66.6673C34.5982 66.3326 34.615 65.9812 34.615 65.613C34.615 65.2783 34.615 64.9436 34.615 64.6089C34.6486 64.2407 34.6654 63.8725 34.6654 63.5044V62.3998C34.6654 62.1321 34.6822 61.9313 34.7158 61.7974V56.576ZM45.6976 63.8558C45.664 63.5211 45.6473 63.2199 45.6473 62.9521C45.6473 62.6509 45.6305 62.3664 45.5969 62.0986C45.5633 61.5965 45.5129 61.1782 45.4457 60.8435C45.4457 60.7765 45.429 60.7096 45.3954 60.6426C45.3954 60.5757 45.3954 60.5255 45.3954 60.492V60.3414L45.345 60.3916V60.492C45.345 60.5255 45.3282 60.5757 45.2946 60.6426C45.2946 60.7096 45.2946 60.7765 45.2946 60.8435C45.2275 61.1782 45.1771 61.5965 45.1435 62.0986C45.1099 62.3664 45.0931 62.6509 45.0931 62.9521C45.0931 63.2199 45.0763 63.5211 45.0427 63.8558V64.3579C45.0427 64.4583 45.026 64.5587 44.9924 64.6591C44.9924 64.7261 44.9924 64.793 44.9924 64.8599V66.9686C44.9924 67.069 45.0092 67.1527 45.0427 67.2196V67.9727C45.0427 68.1401 45.0427 68.2907 45.0427 68.4246C45.0763 68.5584 45.0931 68.7091 45.0931 68.8764C45.0931 69.0438 45.0931 69.1944 45.0931 69.3283C45.1267 69.4621 45.1435 69.596 45.1435 69.7299C45.1771 69.8638 45.1939 69.9977 45.1939 70.1316C45.1939 70.232 45.2107 70.3324 45.2442 70.4328C45.2442 70.5332 45.2442 70.6336 45.2442 70.734C45.2778 70.8344 45.2946 70.9181 45.2946 70.9851C45.2946 71.052 45.2946 71.1189 45.2946 71.1859C45.3282 71.2528 45.345 71.303 45.345 71.3365V71.4369C45.345 71.4704 45.3618 71.4871 45.3954 71.4871V71.3365C45.3954 71.303 45.3954 71.2528 45.3954 71.1859C45.429 71.1189 45.4457 71.052 45.4457 70.9851C45.4457 70.9181 45.4457 70.8344 45.4457 70.734C45.4793 70.6336 45.4961 70.5332 45.4961 70.4328C45.5297 70.3324 45.5465 70.232 45.5465 70.1316C45.5465 69.9977 45.5633 69.8638 45.5969 69.7299C45.5969 69.596 45.5969 69.4621 45.5969 69.3283C45.6305 69.1944 45.6473 69.0438 45.6473 68.8764C45.6473 68.7091 45.6473 68.5584 45.6473 68.4246C45.6808 68.2907 45.6976 68.1401 45.6976 67.9727V67.4706C45.6976 67.3368 45.7144 67.2531 45.748 67.2196V64.8599C45.748 64.793 45.7312 64.7261 45.6976 64.6591C45.6976 64.5587 45.6976 64.4583 45.6976 64.3579V63.8558Z" fill="#3E3B47"/>
<path d="M66.0131 58.9858C66.5841 58.9858 67.0542 59.103 67.4237 59.3373C67.0542 59.5716 66.7352 59.8895 66.4665 60.2912C66.2314 60.6928 66.0803 61.128 66.0131 61.5965V69.1776C65.9796 70.2487 65.7445 71.2528 65.3079 72.19C64.9049 73.0937 64.3507 73.897 63.6455 74.5999C62.9402 75.2693 62.1174 75.8048 61.1771 76.2065C60.2367 76.6081 59.2292 76.8089 58.1546 76.8089C57.0799 76.8089 56.0724 76.6081 55.132 76.2065C54.1917 75.8048 53.3689 75.2693 52.6636 74.5999C51.9584 73.897 51.3874 73.0937 50.9509 72.19C50.5478 71.2528 50.3296 70.2487 50.296 69.1776V61.5965C50.1952 60.559 49.725 59.8059 48.8855 59.3373C49.2549 59.103 49.725 58.9858 50.296 58.9858V49.2961C50.3296 48.2585 50.5478 47.2711 50.9509 46.3339C51.3874 45.3968 51.9584 44.5935 52.6636 43.9241C53.3689 43.2212 54.1917 42.6689 55.132 42.2673C56.0724 41.8656 57.0799 41.6648 58.1546 41.6648C59.2292 41.6648 60.2367 41.8656 61.1771 42.2673C62.1174 42.6689 62.9402 43.2212 63.6455 43.9241C64.3507 44.5935 64.9049 45.3968 65.3079 46.3339C65.7445 47.2711 65.9796 48.2585 66.0131 49.2961V58.9858ZM53.0162 57.1784C53.0162 57.0111 52.9995 56.8605 52.9659 56.7266C52.9659 56.5592 52.9659 56.3919 52.9659 56.2245V55.2706C52.9323 54.6347 52.9155 54.0322 52.9155 53.4632C52.9155 52.8942 52.8987 52.3587 52.8651 51.8566C52.8315 51.6223 52.8147 51.388 52.8147 51.1537C52.8147 50.9194 52.798 50.7019 52.7644 50.501C52.7644 50.3002 52.7476 50.1161 52.714 49.9488C52.714 49.7814 52.714 49.6308 52.714 49.4969C52.714 49.3296 52.6972 49.1957 52.6636 49.0953C52.6636 48.9614 52.6636 48.861 52.6636 48.794V48.543C52.63 48.543 52.6132 48.5597 52.6132 48.5932V48.794C52.6132 48.861 52.5965 48.9614 52.5629 49.0953C52.5629 49.1957 52.5629 49.3296 52.5629 49.4969C52.5629 49.6308 52.5461 49.7814 52.5125 49.9488C52.5125 50.1161 52.5125 50.3002 52.5125 50.501C52.4789 50.7019 52.4621 50.9194 52.4621 51.1537C52.4621 51.388 52.4453 51.6223 52.4117 51.8566C52.3782 52.3587 52.3614 52.8942 52.3614 53.4632C52.3614 54.0322 52.3446 54.6347 52.311 55.2706V56.2245C52.311 56.3919 52.2942 56.5592 52.2606 56.7266C52.2606 56.8605 52.2606 57.0111 52.2606 57.1784V61.1447C52.2606 61.379 52.2774 61.5463 52.311 61.6468V63.1027C52.311 63.404 52.311 63.7052 52.311 64.0064C52.3446 64.3077 52.3614 64.5922 52.3614 64.8599C52.3614 65.1612 52.3614 65.4457 52.3614 65.7134C52.3949 65.9477 52.4117 66.1988 52.4117 66.4665C52.4453 66.7343 52.4621 66.9853 52.4621 67.2196C52.4621 67.4204 52.4789 67.6213 52.5125 67.8221C52.5125 68.0229 52.5125 68.207 52.5125 68.3743C52.5461 68.5417 52.5629 68.7091 52.5629 68.8764C52.5629 69.0438 52.5629 69.1944 52.5629 69.3283C52.5965 69.4287 52.6132 69.5123 52.6132 69.5793V69.7299C52.6132 69.7634 52.63 69.7801 52.6636 69.7801V69.5793C52.6636 69.5123 52.6636 69.4287 52.6636 69.3283C52.6972 69.1944 52.714 69.0438 52.714 68.8764C52.714 68.7091 52.714 68.5417 52.714 68.3743C52.7476 68.207 52.7644 68.0229 52.7644 67.8221C52.798 67.6213 52.8147 67.4204 52.8147 67.2196C52.8147 66.9853 52.8315 66.7343 52.8651 66.4665C52.8651 66.1988 52.8651 65.9477 52.8651 65.7134C52.8987 65.4457 52.9155 65.1612 52.9155 64.8599C52.9155 64.5922 52.9155 64.3077 52.9155 64.0064C52.9491 63.7052 52.9659 63.404 52.9659 63.1027V61.6468C52.9995 61.5463 53.0162 61.379 53.0162 61.1447V57.1784ZM61.3282 49.4969C61.3282 49.0618 61.3114 48.5263 61.2778 47.8903C61.2443 47.2544 61.1267 46.6519 60.9252 46.0829C60.7237 45.5139 60.4047 45.0286 59.9681 44.6269C59.5651 44.1918 58.9606 43.9743 58.1546 43.9743C57.3485 43.9743 56.7272 44.1918 56.2907 44.6269C55.8877 45.0286 55.5854 45.5139 55.3839 46.0829C55.1824 46.6519 55.0649 47.2544 55.0313 47.8903C54.9977 48.5263 54.9809 49.0618 54.9809 49.4969V58.9858C55.5518 58.9858 56.022 59.103 56.3914 59.3373C55.5518 59.8059 55.0816 60.559 54.9809 61.5965V68.9768C54.9809 69.4119 54.9977 69.9475 55.0313 70.5834C55.0649 71.1859 55.1824 71.7884 55.3839 72.3908C55.5854 72.9598 55.8877 73.4452 56.2907 73.8468C56.7272 74.2484 57.3485 74.4493 58.1546 74.4493C58.9606 74.4493 59.5651 74.2484 59.9681 73.8468C60.4047 73.4452 60.7237 72.9598 60.9252 72.3908C61.1267 71.7884 61.2443 71.1859 61.2778 70.5834C61.3114 69.9475 61.3282 69.4119 61.3282 68.9768V61.5965C61.261 60.5924 60.7909 59.8393 59.9177 59.3373C60.2871 59.103 60.7573 58.9858 61.3282 58.9858V49.4969ZM64.0485 57.1784C64.0485 57.0111 64.0485 56.8605 64.0485 56.7266C64.0485 56.5592 64.0317 56.3919 63.9981 56.2245V55.2706C63.9981 54.6347 63.9813 54.0322 63.9477 53.4632C63.9477 52.8942 63.931 52.3587 63.8974 51.8566C63.8638 51.6223 63.847 51.388 63.847 51.1537C63.847 50.9194 63.8302 50.7019 63.7966 50.501C63.7966 50.3002 63.7798 50.1161 63.7462 49.9488C63.7462 49.7814 63.7462 49.6308 63.7462 49.4969C63.7462 49.3296 63.7294 49.1957 63.6959 49.0953C63.6959 48.9614 63.6959 48.861 63.6959 48.794V48.543C63.6623 48.543 63.6455 48.5597 63.6455 48.5932V48.794C63.6455 48.861 63.6455 48.9614 63.6455 49.0953C63.6455 49.1957 63.6287 49.3296 63.5951 49.4969C63.5951 49.6308 63.5783 49.7814 63.5447 49.9488C63.5447 50.1161 63.5447 50.3002 63.5447 50.501C63.5112 50.7019 63.4944 50.9194 63.4944 51.1537C63.4944 51.388 63.4776 51.6223 63.444 51.8566C63.4104 52.3587 63.3936 52.8942 63.3936 53.4632C63.3936 54.0322 63.3768 54.6347 63.3432 55.2706V57.1784C63.3097 57.5131 63.2929 57.8478 63.2929 58.1825C63.2929 58.5172 63.2929 58.852 63.2929 59.1867C63.2929 59.5214 63.2929 59.8561 63.2929 60.1908C63.2929 60.492 63.3097 60.81 63.3432 61.1447V63.1027C63.3432 63.404 63.3432 63.7052 63.3432 64.0064C63.3768 64.3077 63.3936 64.5922 63.3936 64.8599C63.3936 65.1612 63.3936 65.4457 63.3936 65.7134C63.4272 65.9477 63.444 66.1988 63.444 66.4665C63.4776 66.7343 63.4944 66.9853 63.4944 67.2196C63.4944 67.4204 63.5112 67.6213 63.5447 67.8221C63.5447 68.0229 63.5447 68.207 63.5447 68.3743C63.5783 68.5417 63.5951 68.7091 63.5951 68.8764C63.6287 69.0438 63.6455 69.1944 63.6455 69.3283C63.6455 69.4287 63.6455 69.5123 63.6455 69.5793V69.7299C63.6455 69.7634 63.6623 69.7801 63.6959 69.7801V69.5793C63.6959 69.5123 63.6959 69.4287 63.6959 69.3283C63.7294 69.1944 63.7462 69.0438 63.7462 68.8764C63.7462 68.7091 63.7462 68.5417 63.7462 68.3743C63.7798 68.207 63.7966 68.0229 63.7966 67.8221C63.8302 67.6213 63.847 67.4204 63.847 67.2196C63.847 66.9853 63.8638 66.7343 63.8974 66.4665C63.8974 66.1988 63.8974 65.9477 63.8974 65.7134C63.931 65.4457 63.9477 65.1612 63.9477 64.8599C63.9477 64.5922 63.9477 64.3077 63.9477 64.0064C63.9813 63.7052 63.9981 63.404 63.9981 63.1027V62.1488C63.9981 62.0819 63.9981 61.9982 63.9981 61.8978C64.0317 61.7974 64.0485 61.7137 64.0485 61.6468V57.1784Z" fill="#3E3B47"/>
<path d="M84.7072 52.5093C84.7072 54.0154 84.3378 55.371 83.5989 56.576C82.8601 57.7809 81.8694 58.7181 80.6268 59.3875C81.2313 59.8561 81.7854 60.4083 82.2892 61.0443C82.7929 61.6468 83.2127 62.3162 83.5486 63.0525C83.918 63.7889 84.2034 64.542 84.4049 65.3118C84.6064 66.0816 84.7072 66.8347 84.7072 67.5711V70.7842C84.6736 71.8553 84.4553 72.8594 84.0523 73.7966C83.6493 74.7003 83.0952 75.5036 82.3899 76.2065C81.6847 76.8759 80.8619 77.4114 79.9215 77.8131C78.9812 78.2482 77.9737 78.4657 76.899 78.4657H72.1637C71.9286 78.4657 71.7271 78.3821 71.5592 78.2147C71.4248 78.0474 71.3577 77.8465 71.3577 77.6122C71.3577 77.8465 71.2737 78.0474 71.1058 78.2147C70.9379 78.3821 70.7532 78.4657 70.5517 78.4657H67.8818C67.8818 78.1645 67.9321 77.9469 68.0329 77.8131C68.1672 77.6792 68.3016 77.5286 68.4359 77.3612C68.5702 77.2273 68.6878 77.0265 68.7885 76.7587C68.9229 76.491 68.99 76.0726 68.99 75.5036V61.4961C68.8893 60.492 68.4191 59.7557 67.5795 59.2871C68.0161 59.0193 68.4863 58.8854 68.99 58.8854V42.3677C68.99 41.7987 68.9229 41.3803 68.7885 41.1125C68.6878 40.8448 68.5702 40.6439 68.4359 40.51C68.3016 40.3427 68.1672 40.1921 68.0329 40.0582C67.9321 39.9243 67.8818 39.7068 67.8818 39.4055H70.5517C70.7532 39.4055 70.9379 39.4892 71.1058 39.6565C71.2737 39.7904 71.3577 39.9745 71.3577 40.2088C71.3577 39.6733 71.6263 39.4055 72.1637 39.4055H76.899C77.9737 39.4055 78.9812 39.6063 79.9215 40.008C80.8619 40.4096 81.6847 40.9619 82.3899 41.6648C83.0952 42.3342 83.6493 43.1375 84.0523 44.0747C84.4553 45.0119 84.6736 45.9992 84.7072 47.0368V52.5093ZM71.7103 56.2245C71.7103 55.9902 71.6935 55.7727 71.6599 55.5718C71.6599 55.3375 71.6599 55.12 71.6599 54.9192V53.6138C71.6263 52.7436 71.6095 51.9235 71.6095 51.1537C71.6095 50.3839 71.5928 49.6643 71.5592 48.9949C71.5256 48.6267 71.5088 48.292 71.5088 47.9907C71.5088 47.6895 71.492 47.405 71.4584 47.1372C71.4584 46.8695 71.4416 46.6184 71.408 46.3841C71.408 46.1164 71.408 45.8988 71.408 45.7315C71.408 45.5306 71.3913 45.3466 71.3577 45.1792C71.3577 45.0118 71.3577 44.878 71.3577 44.7776V44.4763C71.3241 44.5098 71.3073 44.5433 71.3073 44.5767V44.7776C71.3073 44.878 71.2905 45.0118 71.2569 45.1792C71.2569 45.3466 71.2569 45.5306 71.2569 45.7315C71.2569 45.8988 71.2401 46.1164 71.2065 46.3841C71.2065 46.6184 71.2065 46.8695 71.2065 47.1372C71.173 47.405 71.1562 47.6895 71.1562 47.9907C71.1562 48.292 71.1394 48.6267 71.1058 48.9949C71.0722 49.6643 71.0554 50.3839 71.0554 51.1537C71.0554 51.9235 71.0386 52.7436 71.005 53.6138V54.9192C71.005 55.12 71.005 55.3375 71.005 55.5718C71.005 55.7727 70.9882 55.9902 70.9547 56.2245V61.5965C70.9547 61.7304 70.9547 61.8476 70.9547 61.948C70.9882 62.0484 71.005 62.1655 71.005 62.2994V64.2073C71.005 64.6424 71.005 65.0775 71.005 65.5126C71.0386 65.9143 71.0554 66.2992 71.0554 66.6673C71.0554 67.0355 71.0554 67.4037 71.0554 67.7719C71.089 68.1401 71.1058 68.5082 71.1058 68.8764C71.1394 69.0438 71.1562 69.2111 71.1562 69.3785C71.1562 69.5124 71.1562 69.663 71.1562 69.8303C71.1562 69.9977 71.1562 70.1483 71.1562 70.2822C71.1898 70.4161 71.2065 70.5499 71.2065 70.6838C71.2065 70.9516 71.2065 71.2194 71.2065 71.4871C71.2401 71.7214 71.2569 71.939 71.2569 72.1398C71.2569 72.3406 71.2569 72.5247 71.2569 72.6921C71.2905 72.8259 71.3073 72.9431 71.3073 73.0435V73.2945C71.3073 73.328 71.3241 73.3615 71.3577 73.3949V73.0435C71.3577 72.9431 71.3577 72.8259 71.3577 72.6921C71.3913 72.5247 71.408 72.3406 71.408 72.1398C71.408 71.939 71.408 71.7214 71.408 71.4871C71.4416 71.2194 71.4584 70.9516 71.4584 70.6838C71.492 70.5499 71.5088 70.4161 71.5088 70.2822C71.5088 70.1483 71.5088 69.9977 71.5088 69.8303C71.5088 69.663 71.5088 69.5124 71.5088 69.3785C71.5424 69.2111 71.5592 69.0438 71.5592 68.8764C71.5592 68.5082 71.5592 68.1401 71.5592 67.7719C71.5928 67.4037 71.6095 67.0355 71.6095 66.6673C71.6095 66.2992 71.6095 65.9143 71.6095 65.5126C71.6431 65.0775 71.6599 64.6424 71.6599 64.2073V62.9521C71.6599 62.6509 71.6767 62.4333 71.7103 62.2994V56.2245ZM82.0877 69.7801C82.0541 69.8805 82.0373 70.0479 82.0373 70.2822V71.1859C82.0373 71.3532 82.0205 71.5039 81.9869 71.6377C81.9869 71.7716 81.9869 71.9055 81.9869 72.0394C81.9869 72.1733 81.9701 72.2904 81.9365 72.3908C81.9365 72.4912 81.9365 72.5916 81.9365 72.6921V72.8427C81.903 72.8761 81.8862 72.9264 81.8862 72.9933V73.2443C81.8526 73.2778 81.8358 73.3113 81.8358 73.3447V73.4451C81.8358 73.4786 81.819 73.5121 81.7854 73.5456C81.7854 73.5456 81.7854 73.5623 81.7854 73.5958C81.7854 73.6292 81.7686 73.6627 81.735 73.6962H81.7854C81.7854 73.6962 81.8022 73.6627 81.8358 73.5958C81.8358 73.5958 81.8526 73.5623 81.8862 73.4954C81.9197 73.4619 81.9365 73.4284 81.9365 73.3949C81.9701 73.3615 81.9869 73.328 81.9869 73.2945C82.0205 73.2611 82.0373 73.2276 82.0373 73.1941C82.0709 73.1606 82.0877 73.1104 82.0877 73.0435C82.1548 72.9766 82.1884 72.8929 82.1884 72.7925C82.2556 72.6586 82.3228 72.4243 82.3899 72.0896C82.4571 71.8888 82.4907 71.7549 82.4907 71.6879C82.5243 71.621 82.541 71.5541 82.541 71.4871C82.541 71.3867 82.5578 71.303 82.5914 71.2361C82.5914 71.1691 82.5914 71.1022 82.5914 71.0353C82.625 70.9349 82.6418 70.8512 82.6418 70.7842C82.6754 70.6838 82.6922 70.5332 82.6922 70.3324C82.7258 70.165 82.7425 69.9977 82.7425 69.8303C82.7425 69.663 82.7593 69.4956 82.7929 69.3283V67.2196C82.7929 67.0523 82.7761 66.8849 82.7425 66.7176C82.7425 66.5502 82.7258 66.3828 82.6922 66.2155C82.6922 66.0147 82.6754 65.8641 82.6418 65.7636C82.6418 65.6967 82.625 65.6298 82.5914 65.5628C82.5914 65.4624 82.5914 65.3787 82.5914 65.3118C82.5578 65.2448 82.541 65.1779 82.541 65.111C82.541 65.0106 82.5243 64.9269 82.4907 64.8599C82.4907 64.793 82.4739 64.7261 82.4403 64.6591C82.4403 64.5922 82.4403 64.5252 82.4403 64.4583C82.3731 64.2575 82.3395 64.1403 82.3395 64.1068C82.306 64.0064 82.2556 63.8893 82.1884 63.7554C82.1884 63.655 82.1548 63.5713 82.0877 63.5044C82.0877 63.404 82.0541 63.3203 81.9869 63.2533C81.9197 63.1195 81.8694 63.019 81.8358 62.9521C81.8022 62.9186 81.7854 62.8852 81.7854 62.8517H81.735C81.735 62.8517 81.7518 62.8852 81.7854 62.9521C81.7854 62.9856 81.7854 63.019 81.7854 63.0525C81.819 63.0525 81.8358 63.0693 81.8358 63.1027C81.8358 63.1697 81.8526 63.2366 81.8862 63.3035V63.5546C81.9197 63.6215 81.9365 63.7052 81.9365 63.8056C81.9365 63.973 81.9533 64.0901 81.9869 64.1571V64.5085C82.0205 64.6424 82.0373 64.7763 82.0373 64.9101C82.0373 65.044 82.0373 65.1946 82.0373 65.362V65.8138C82.0373 65.8808 82.0373 65.9645 82.0373 66.0649C82.0709 66.1318 82.0877 66.1988 82.0877 66.2657V69.7801ZM80.0223 67.5711C80.0223 67.1359 80.0055 66.5167 79.9719 65.7134C79.9383 64.9101 79.8208 64.1068 79.6193 63.3035C79.4178 62.5003 79.0987 61.8141 78.6621 61.2451C78.2591 60.6426 77.6546 60.3414 76.8486 60.3414H75.0351C74.6657 60.3414 74.3466 60.4753 74.0779 60.743C73.8093 61.0108 73.6749 61.3288 73.6749 61.697V74.7505C73.6749 75.1187 73.8093 75.4367 74.0779 75.7044C74.3466 75.9387 74.6657 76.0726 75.0351 76.1061H76.8486C77.6546 76.1061 78.2591 75.9052 78.6621 75.5036C79.0987 75.0685 79.4178 74.5664 79.6193 73.9974C79.8208 73.4284 79.9383 72.8259 79.9719 72.19C80.0055 71.5541 80.0223 71.0185 80.0223 70.5834V67.5711ZM80.0223 47.2376C80.0223 46.8025 80.0055 46.2837 79.9719 45.6813C79.9383 45.0453 79.8208 44.4428 79.6193 43.8738C79.4178 43.3048 79.0987 42.8195 78.6621 42.4179C78.2591 41.9828 77.6546 41.7652 76.8486 41.7652H75.0351C74.6657 41.7652 74.3466 41.8991 74.0779 42.1668C73.8093 42.4346 73.6749 42.7526 73.6749 43.1208V56.6262C73.6749 56.9943 73.8093 57.3123 74.0779 57.5801C74.3466 57.8478 74.6657 57.9817 75.0351 57.9817H76.8486C77.6546 57.9817 78.2591 57.7809 78.6621 57.3792C79.0987 56.9776 79.4178 56.4923 79.6193 55.9233C79.8208 55.3208 79.9383 54.7183 79.9719 54.1159C80.0055 53.4799 80.0223 52.9444 80.0223 52.5093V47.2376ZM82.2892 53.8648C82.3563 53.664 82.3899 53.5301 82.3899 53.4632C82.4571 53.3293 82.4907 53.1954 82.4907 53.0615C82.5243 52.9946 82.541 52.9277 82.541 52.8607C82.541 52.7603 82.5578 52.6766 82.5914 52.6097C82.5914 52.5427 82.5914 52.4758 82.5914 52.4089C82.625 52.3084 82.6418 52.208 82.6418 52.1076C82.6754 52.0072 82.6922 51.8399 82.6922 51.6056C82.7258 51.4382 82.7425 51.2709 82.7425 51.1035C82.7425 50.9362 82.7593 50.7688 82.7929 50.6014V49.4969C82.7929 49.1287 82.7929 48.7773 82.7929 48.4426C82.7929 48.0744 82.7761 47.723 82.7425 47.3883C82.709 47.2879 82.6922 47.2042 82.6922 47.1372C82.6922 47.0368 82.6754 46.9531 82.6418 46.8862C82.6418 46.6519 82.625 46.4846 82.5914 46.3841C82.5578 46.2168 82.5243 46.0662 82.4907 45.9323C82.4907 45.7984 82.4739 45.6645 82.4403 45.5306C82.3731 45.3298 82.3395 45.1959 82.3395 45.129C82.2724 44.9951 82.2388 44.8947 82.2388 44.8278C82.1716 44.6939 82.1212 44.5935 82.0877 44.5265C82.0877 44.4261 82.0541 44.3424 81.9869 44.2755C81.9533 44.1751 81.903 44.0579 81.8358 43.9241L81.735 43.8236V43.8738C81.735 43.9073 81.735 43.9241 81.735 43.9241C81.7686 43.9241 81.7854 43.9408 81.7854 43.9743C81.819 44.0077 81.8358 44.0579 81.8358 44.1249C81.8358 44.1918 81.8526 44.2588 81.8862 44.3257V44.5767C81.9197 44.6437 81.9365 44.7441 81.9365 44.878C81.9365 44.9449 81.9365 45.0118 81.9365 45.0788C81.9701 45.1123 81.9869 45.1625 81.9869 45.2294V45.5808C82.0205 45.7147 82.0373 45.8486 82.0373 45.9825C82.0373 46.1164 82.0373 46.267 82.0373 46.4344V46.9364C82.0373 47.0034 82.0373 47.087 82.0373 47.1874C82.0709 47.2544 82.0877 47.3213 82.0877 47.3883V51.1035C82.0541 51.2039 82.0373 51.3713 82.0373 51.6056V52.5595C82.0373 52.7268 82.0205 52.8774 81.9869 53.0113C81.9869 53.1452 81.9869 53.2791 81.9869 53.413C81.9869 53.5469 81.9701 53.6807 81.9365 53.8146C81.9365 53.915 81.9365 54.0154 81.9365 54.1159C81.9365 54.2832 81.9197 54.3836 81.8862 54.4171V54.7183C81.8526 54.7183 81.8358 54.7518 81.8358 54.8187V54.9192C81.8358 54.9526 81.819 54.9861 81.7854 55.0196C81.7854 55.0196 81.7854 55.0363 81.7854 55.0698C81.7854 55.1032 81.7686 55.1367 81.735 55.1702L81.8358 55.0698C81.8358 55.0363 81.8358 55.0196 81.8358 55.0196C81.8694 54.9861 81.8862 54.9526 81.8862 54.9192C81.9197 54.9192 81.9365 54.8857 81.9365 54.8187C81.9701 54.8187 81.9869 54.7853 81.9869 54.7183C82.0205 54.7183 82.0373 54.6849 82.0373 54.6179C82.0709 54.5844 82.0877 54.5342 82.0877 54.4673C82.1548 54.4004 82.1884 54.3167 82.1884 54.2163C82.2556 54.0154 82.2892 53.8983 82.2892 53.8648Z" fill="#3E3B47"/>
<path d="M103.761 73.7966C103.896 74.3656 104.047 74.784 104.215 75.0517C104.383 75.3195 104.551 75.5371 104.718 75.7044C104.886 75.8718 105.038 76.0224 105.172 76.1563C105.306 76.2902 105.407 76.5077 105.474 76.8089H102.804C102.569 76.8089 102.351 76.7253 102.149 76.5579C101.981 76.3906 101.881 76.1897 101.847 75.9554C101.881 76.1897 101.83 76.3906 101.696 76.5579C101.562 76.7253 101.394 76.8089 101.192 76.8089H98.5223C98.4551 76.5077 98.4719 76.2902 98.5727 76.1563C98.6734 76.0224 98.7742 75.8885 98.8749 75.7546C98.9757 75.5873 99.0596 75.3697 99.1268 75.1019C99.194 74.8007 99.1772 74.3489 99.0764 73.7464V73.6962L97.9682 68.0229C97.901 67.6882 97.7163 67.4037 97.414 67.1694C97.1118 66.9016 96.7759 66.7678 96.4065 66.7678H92.9306C92.5612 66.7678 92.2253 66.9016 91.9231 67.1694C91.6208 67.4037 91.4361 67.6882 91.369 68.0229L90.3111 73.6962V73.7464C90.2103 74.3489 90.1767 74.8007 90.2103 75.1019C90.2775 75.3697 90.3615 75.5873 90.4622 75.7546C90.5965 75.8885 90.6973 76.0224 90.7645 76.1563C90.8652 76.2902 90.8988 76.5077 90.8652 76.8089H88.1953C87.9602 76.8089 87.7755 76.7253 87.6412 76.5579C87.5068 76.3906 87.4565 76.1897 87.49 75.9554C87.4565 76.1897 87.3557 76.3906 87.1878 76.5579C87.0199 76.7253 86.8184 76.8089 86.5833 76.8089H83.9134C83.947 76.5077 84.0309 76.2902 84.1653 76.1563C84.2996 76.0224 84.4507 75.8718 84.6186 75.7044C84.7866 75.5371 84.9545 75.3195 85.1224 75.0517C85.2903 74.784 85.4414 74.3656 85.5758 73.7966L87.8427 61.5965C87.9098 61.128 87.8595 60.6928 87.6915 60.2912C87.5236 59.8895 87.255 59.5716 86.8855 59.3373C87.4229 59.103 87.9098 58.9858 88.3464 58.9858L91.0667 44.6771C91.1675 44.1081 91.1843 43.6898 91.1171 43.422C91.0499 43.1208 90.966 42.9032 90.8652 42.7693C90.7645 42.602 90.6637 42.4513 90.563 42.3175C90.4622 42.1836 90.4454 41.966 90.5126 41.6648H93.8877C94.3915 41.7317 94.6434 42.0162 94.6434 42.5183C94.6434 42.284 94.7105 42.0999 94.8449 41.966C95.0128 41.7987 95.1975 41.6983 95.399 41.6648H98.8245C98.8917 41.966 98.8749 42.1836 98.7742 42.3175C98.707 42.4513 98.623 42.602 98.5223 42.7693C98.4215 42.9032 98.3376 43.1208 98.2704 43.422C98.2032 43.6898 98.22 44.1081 98.3208 44.6771L100.991 58.9858C101.259 58.9858 101.511 59.0193 101.746 59.0863C101.981 59.1532 102.217 59.2369 102.452 59.3373C101.713 59.8059 101.394 60.559 101.494 61.5965L103.761 73.7966ZM91.6712 55.8229C91.7384 55.622 91.772 55.438 91.772 55.2706C91.8056 55.0698 91.8391 54.8857 91.8727 54.7183C92.0406 53.9485 92.175 53.2289 92.2757 52.5595C92.3765 51.8566 92.4772 51.2207 92.578 50.6517C92.6451 50.3839 92.6787 50.1161 92.6787 49.8484C92.7123 49.5806 92.7459 49.3128 92.7795 49.0451C92.8131 48.8108 92.8466 48.5932 92.8802 48.3924C92.9138 48.1916 92.9474 48.0075 92.981 47.8401C93.0146 47.6728 93.0314 47.5221 93.0314 47.3883C93.0314 47.2209 93.0481 47.087 93.0817 46.9866V46.7858L93.0314 46.9866C92.9978 47.087 92.9642 47.2042 92.9306 47.3381C92.897 47.4719 92.8634 47.6226 92.8299 47.7899C92.7627 47.9573 92.7123 48.1581 92.6787 48.3924C92.6451 48.5932 92.5948 48.794 92.5276 48.9949C92.4604 49.2626 92.3933 49.5304 92.3261 49.7981C92.2925 50.0659 92.2421 50.3337 92.175 50.6014C92.0071 51.1704 91.8391 51.7897 91.6712 52.4591C91.5369 53.095 91.3858 53.7979 91.2178 54.5677C91.2178 54.7685 91.201 54.9526 91.1675 55.12C91.1339 55.2873 91.0835 55.4714 91.0163 55.6722C90.9828 55.8731 90.9492 56.0739 90.9156 56.2747C90.882 56.4421 90.8484 56.6262 90.8148 56.827C90.7141 57.1952 90.6133 57.5801 90.5126 57.9817C90.4454 58.3834 90.3782 58.785 90.3111 59.1867C90.2439 59.5548 90.16 59.9397 90.0592 60.3414C89.992 60.743 89.9249 61.128 89.8577 61.4961C89.8241 61.5965 89.8073 61.697 89.8073 61.7974C89.8073 61.8643 89.7905 61.948 89.7569 62.0484C89.6898 62.3162 89.6562 62.517 89.6562 62.6509C89.5554 62.9856 89.4883 63.3538 89.4547 63.7554C89.3875 64.1236 89.3204 64.4918 89.2532 64.8599C89.186 65.2281 89.1356 65.5628 89.1021 65.8641C89.0013 66.6339 88.9006 67.2698 88.7998 67.7719C88.7326 68.0396 88.6823 68.3074 88.6487 68.5752C88.6151 68.8429 88.5815 69.1107 88.5479 69.3785C88.4808 69.6128 88.4304 69.8471 88.3968 70.0814C88.3968 70.2822 88.38 70.4663 88.3464 70.6336C88.3128 70.801 88.2961 70.9516 88.2961 71.0855C88.2961 71.2194 88.2793 71.3365 88.2457 71.4369C88.2457 71.5039 88.2289 71.5541 88.1953 71.5875C88.1953 71.5875 88.1953 71.6043 88.1953 71.6377V71.6879C88.2289 71.6879 88.2457 71.6712 88.2457 71.6377C88.2457 71.5708 88.2625 71.5039 88.2961 71.4369C88.3296 71.37 88.3464 71.2696 88.3464 71.1357C88.38 70.9683 88.4304 70.801 88.4976 70.6336C88.5647 70.4663 88.6151 70.2822 88.6487 70.0814C88.7159 69.8805 88.783 69.663 88.8502 69.4287C88.9174 69.1944 88.9677 68.9433 89.0013 68.6756C89.0685 68.4078 89.1189 68.1401 89.1524 67.8723C89.2196 67.6045 89.2868 67.32 89.3539 67.0188C89.4547 66.6841 89.5387 66.3494 89.6058 66.0147C89.673 65.68 89.7402 65.3285 89.8073 64.9603C89.9081 64.5922 90.0088 64.224 90.1096 63.8558C90.1432 63.6885 90.1767 63.5211 90.2103 63.3538C90.2439 63.1529 90.2775 62.9688 90.3111 62.8015L90.4622 62.199C90.4958 62.0986 90.5126 61.9982 90.5126 61.8978C90.5126 61.7974 90.5294 61.697 90.563 61.5965C90.6301 61.2284 90.7141 60.8602 90.8148 60.492C90.9156 60.0904 90.9995 59.6887 91.0667 59.2871C91.1339 58.9189 91.201 58.534 91.2682 58.1323C91.3354 57.7307 91.4025 57.3458 91.4697 56.9776C91.5033 56.7768 91.5369 56.576 91.5705 56.3751C91.6041 56.1743 91.6376 55.9902 91.6712 55.8229ZM95.9531 64.4081C96.3226 64.3746 96.608 64.2407 96.8095 64.0064C97.0446 63.7387 97.1286 63.4207 97.0614 63.0525L96.7591 61.5965C96.6248 61.128 96.3897 60.6928 96.0539 60.2912C95.7516 59.8895 95.3822 59.5716 94.9456 59.3373C95.3486 59.103 95.7852 58.9858 96.2554 58.9858L94.6434 50.4006L93.0314 58.9858C93.4679 58.9858 93.9213 59.103 94.3915 59.3373C93.9213 59.5716 93.5183 59.8895 93.1825 60.2912C92.8802 60.6928 92.6787 61.128 92.578 61.5965L92.3261 63.0525C92.2589 63.4207 92.3261 63.7387 92.5276 64.0064C92.7291 64.2407 92.9978 64.3746 93.3336 64.4081H95.9531ZM101.041 71.4369C101.041 71.5039 101.041 71.5541 101.041 71.5875C101.075 71.5875 101.091 71.6043 101.091 71.6377V71.4369C101.058 71.3365 101.041 71.2194 101.041 71.0855C101.041 70.9516 101.024 70.801 100.991 70.6336C100.957 70.4663 100.924 70.2822 100.89 70.0814C100.89 69.8471 100.856 69.6128 100.789 69.3785C100.756 69.1107 100.722 68.8429 100.688 68.5752C100.655 68.3074 100.604 68.0396 100.537 67.7719C100.437 67.2698 100.336 66.6339 100.235 65.8641C100.168 65.5628 100.101 65.2281 100.034 64.8599C100 64.4918 99.9496 64.1236 99.8824 63.7554C99.8153 63.5546 99.7649 63.3705 99.7313 63.2031C99.7313 63.0358 99.6977 62.8517 99.6306 62.6509C99.6306 62.517 99.597 62.3162 99.5298 62.0484C99.5298 61.948 99.513 61.8643 99.4794 61.7974C99.4794 61.697 99.4794 61.5965 99.4794 61.4961C99.4123 61.128 99.3283 60.743 99.2276 60.3414C99.1604 59.9397 99.0932 59.5548 99.026 59.1867C98.9589 58.785 98.8749 58.3834 98.7742 57.9817C98.707 57.5801 98.623 57.1952 98.5223 56.827C98.4887 56.6262 98.4551 56.4421 98.4215 56.2747C98.388 56.0739 98.3544 55.8731 98.3208 55.6722C98.2536 55.4714 98.2032 55.2873 98.1697 55.12C98.1361 54.9526 98.1025 54.7685 98.0689 54.5677C97.901 53.7979 97.7331 53.095 97.5652 52.4591C97.4308 51.7897 97.3133 51.1704 97.2125 50.6014C97.1454 50.3337 97.0782 50.0659 97.011 49.7981C96.9439 49.5304 96.8767 49.2626 96.8095 48.9949C96.7424 48.794 96.6752 48.5932 96.608 48.3924C96.5744 48.1581 96.5241 47.9573 96.4569 47.7899C96.4233 47.6226 96.3897 47.4719 96.3561 47.3381C96.3226 47.2042 96.289 47.087 96.2554 46.9866L96.205 46.7858V46.9866C96.2386 47.154 96.289 47.4385 96.3561 47.8401C96.3561 48.0075 96.3729 48.1916 96.4065 48.3924C96.4401 48.5932 96.4737 48.8108 96.5073 49.0451C96.5409 49.3128 96.5744 49.5806 96.608 49.8484C96.6416 50.1161 96.692 50.3839 96.7591 50.6517C96.8599 51.2207 96.9607 51.8566 97.0614 52.5595C97.1622 53.2289 97.2797 53.9485 97.414 54.7183C97.4476 54.8857 97.4644 55.0698 97.4644 55.2706C97.498 55.438 97.5484 55.622 97.6155 55.8229C97.6491 55.9902 97.6827 56.1743 97.7163 56.3751C97.7499 56.576 97.7835 56.7768 97.817 56.9776C97.8842 57.3458 97.9514 57.7307 98.0185 58.1323C98.1193 58.534 98.2032 58.9189 98.2704 59.2871C98.3376 59.6887 98.4215 60.0904 98.5223 60.492C98.623 60.8602 98.707 61.2284 98.7742 61.5965C98.8078 61.697 98.8245 61.7974 98.8245 61.8978C98.8245 61.9982 98.8413 62.0986 98.8749 62.199L99.026 62.8015C99.0596 62.9688 99.0932 63.1529 99.1268 63.3538C99.1604 63.5211 99.194 63.6885 99.2276 63.8558C99.3283 64.224 99.4123 64.5922 99.4794 64.9603C99.5466 65.3285 99.6138 65.68 99.6809 66.0147C99.7481 66.3494 99.8153 66.6841 99.8824 67.0188C99.9832 67.32 100.067 67.6045 100.134 67.8723C100.201 68.1401 100.269 68.4078 100.336 68.6756C100.403 68.9433 100.47 69.1944 100.537 69.4287C100.638 69.8973 100.739 70.2989 100.84 70.6336C100.907 70.801 100.94 70.9683 100.94 71.1357C100.974 71.2696 101.007 71.37 101.041 71.4369Z" fill="#3E3B47"/>
<path d="M124.897 78.9176C125.267 78.9845 125.519 79.1017 125.653 79.269C125.821 79.4364 125.939 79.6037 126.006 79.7711C126.073 79.9719 126.106 80.1895 126.106 80.4238C125.032 80.4238 124.024 80.2899 123.084 80.0221C122.144 79.7544 121.304 79.3192 120.565 78.7168C119.86 78.1143 119.289 77.3277 118.852 76.3571C118.449 75.3864 118.248 74.1982 118.248 72.7925V65.9143C118.248 65.4791 118.231 64.9436 118.197 64.3077C118.164 63.6717 118.046 63.0693 117.845 62.5003C117.643 61.9313 117.324 61.4459 116.888 61.0443C116.485 60.6092 115.88 60.3916 115.074 60.3916H113.009C112.707 60.4585 112.438 60.6259 112.203 60.8937C112.001 61.128 111.901 61.4125 111.901 61.7472V73.7464C111.901 74.3489 111.951 74.8007 112.052 75.1019C112.186 75.3697 112.32 75.5873 112.455 75.7546C112.589 75.8885 112.707 76.0224 112.807 76.1563C112.942 76.2902 113.009 76.5077 113.009 76.8089H110.339C110.137 76.8089 109.953 76.7253 109.785 76.5579C109.617 76.3906 109.533 76.2065 109.533 76.0057C109.533 76.2065 109.449 76.3906 109.281 76.5579C109.147 76.7253 108.962 76.8089 108.727 76.8089H106.107C106.107 76.5077 106.158 76.2902 106.258 76.1563C106.393 76.0224 106.527 75.8885 106.661 75.7546C106.796 75.5873 106.913 75.3697 107.014 75.1019C107.148 74.8342 107.216 74.4158 107.216 73.8468V61.5965C107.115 60.559 106.645 59.8059 105.805 59.3373C106.175 59.103 106.645 58.9858 107.216 58.9858V44.6269C107.216 44.0579 107.148 43.6396 107.014 43.3718C106.913 43.104 106.796 42.9032 106.661 42.7693C106.527 42.602 106.393 42.4513 106.258 42.3175C106.158 42.1836 106.107 41.966 106.107 41.6648H108.777C108.979 41.6648 109.163 41.7485 109.331 41.9158C109.499 42.0497 109.583 42.2338 109.583 42.4681C109.583 41.9326 109.852 41.6648 110.389 41.6648H115.125C116.199 41.6648 117.207 41.8656 118.147 42.2673C119.087 42.6689 119.91 43.2212 120.616 43.9241C121.321 44.5935 121.875 45.3968 122.278 46.3339C122.681 47.2711 122.899 48.2585 122.933 49.2961V52.5595C122.933 53.9652 122.597 55.2539 121.925 56.4253C121.254 57.5968 120.347 58.534 119.205 59.2369C120.347 59.9063 121.254 60.8435 121.925 62.0484C122.597 63.2199 122.933 64.5085 122.933 65.9143V72.5916C122.933 73.2945 122.933 74.0142 122.933 74.7505C122.966 75.4534 123.05 76.1061 123.185 76.7085C123.319 77.2775 123.521 77.7629 123.789 78.1645C124.058 78.5662 124.427 78.8172 124.897 78.9176ZM120.313 51.706C120.28 51.7729 120.263 51.8566 120.263 51.957V53.1117C120.229 53.2456 120.213 53.3795 120.213 53.5134C120.213 53.6138 120.213 53.7142 120.213 53.8146C120.213 53.8816 120.196 53.9318 120.162 53.9652C120.162 53.9987 120.162 54.0489 120.162 54.1159V54.4171C120.129 54.484 120.112 54.5677 120.112 54.6681C120.112 54.7351 120.095 54.802 120.061 54.8689C120.061 54.9359 120.045 54.9861 120.011 55.0196V55.12L119.961 55.2204C119.961 55.2204 119.994 55.2037 120.061 55.1702V55.12L120.112 55.0698C120.145 55.0363 120.162 55.0196 120.162 55.0196C120.162 54.9861 120.179 54.9526 120.213 54.9192C120.246 54.8522 120.28 54.7853 120.313 54.7183C120.347 54.6179 120.38 54.5342 120.414 54.4673C120.448 54.4004 120.464 54.3669 120.464 54.3669C120.464 54.3334 120.481 54.2832 120.515 54.2163C120.548 54.1493 120.565 54.0991 120.565 54.0657C120.565 53.9987 120.582 53.9318 120.616 53.8648C120.649 53.7979 120.666 53.7477 120.666 53.7142C120.666 53.6807 120.683 53.6305 120.716 53.5636C120.716 53.4967 120.716 53.4464 120.716 53.413C120.75 53.346 120.767 53.2791 120.767 53.2122C120.8 53.0783 120.817 52.9444 120.817 52.8105C120.851 52.6766 120.884 52.5427 120.918 52.4089C120.951 52.3084 120.968 52.1578 120.968 51.957C120.968 51.8901 120.968 51.8231 120.968 51.7562C121.002 51.6892 121.019 51.6223 121.019 51.5554V49.7981C121.019 49.5973 121.002 49.4467 120.968 49.3463V49.1455C120.968 49.0785 120.951 49.0451 120.918 49.0451C120.918 49.0116 120.918 48.9614 120.918 48.8944C120.918 48.7271 120.884 48.4761 120.817 48.1414C120.783 48.0744 120.767 48.0075 120.767 47.9405C120.767 47.8736 120.75 47.8066 120.716 47.7397C120.716 47.7062 120.699 47.6895 120.666 47.6895C120.666 47.656 120.666 47.6226 120.666 47.5891C120.666 47.5556 120.649 47.5389 120.616 47.5389C120.616 47.5054 120.616 47.4719 120.616 47.4385C120.582 47.3715 120.565 47.3213 120.565 47.2879C120.565 47.2544 120.548 47.2042 120.515 47.1372C120.481 47.0703 120.464 47.0201 120.464 46.9866C120.464 46.9531 120.448 46.9029 120.414 46.836C120.38 46.8025 120.364 46.7691 120.364 46.7356C120.364 46.7021 120.347 46.6686 120.313 46.6352C120.246 46.5013 120.213 46.4344 120.213 46.4344C120.179 46.4009 120.162 46.3841 120.162 46.3841C120.162 46.3507 120.145 46.3172 120.112 46.2837C120.078 46.2503 120.061 46.2168 120.061 46.1833C120.028 46.1499 120.011 46.1164 120.011 46.0829H119.961C119.961 46.0829 119.977 46.1164 120.011 46.1833V46.2837C120.045 46.3172 120.061 46.3841 120.061 46.4846C120.061 46.518 120.061 46.5515 120.061 46.585C120.095 46.585 120.112 46.6184 120.112 46.6854C120.112 46.7858 120.129 46.8695 120.162 46.9364V47.1874C120.162 47.2544 120.162 47.3046 120.162 47.3381C120.196 47.3715 120.213 47.4217 120.213 47.4887C120.213 47.7899 120.229 48.0242 120.263 48.1916V48.9949C120.296 49.1622 120.313 49.43 120.313 49.7981V51.706ZM109.936 56.8772C109.936 56.7098 109.919 56.5257 109.886 56.3249C109.886 56.1241 109.886 55.9233 109.886 55.7225V54.6179C109.852 53.8816 109.835 53.1787 109.835 52.5093C109.835 51.8399 109.818 51.2039 109.785 50.6014C109.751 50.3337 109.734 50.0659 109.734 49.7981C109.734 49.5304 109.718 49.2794 109.684 49.0451C109.684 48.7773 109.667 48.543 109.634 48.3422C109.634 48.1414 109.634 47.9573 109.634 47.7899C109.634 47.6226 109.617 47.4719 109.583 47.3381C109.583 47.2042 109.583 47.087 109.583 46.9866V46.7356C109.55 46.7356 109.533 46.7523 109.533 46.7858V46.9866C109.533 47.087 109.516 47.2042 109.483 47.3381C109.483 47.4719 109.483 47.6226 109.483 47.7899C109.483 47.9573 109.466 48.1414 109.432 48.3422C109.432 48.543 109.432 48.7773 109.432 49.0451C109.399 49.2794 109.382 49.5304 109.382 49.7981C109.382 50.0659 109.365 50.3337 109.331 50.6014C109.298 51.2039 109.281 51.8399 109.281 52.5093C109.281 53.1787 109.264 53.8816 109.231 54.6179V55.7225C109.231 55.9233 109.214 56.1241 109.18 56.3249C109.18 56.5257 109.18 56.7098 109.18 56.8772V61.5463C109.18 61.8141 109.197 62.0149 109.231 62.1488V63.8056C109.231 64.1738 109.231 64.542 109.231 64.9101C109.264 65.2448 109.281 65.5796 109.281 65.9143C109.281 66.2824 109.281 66.6171 109.281 66.9184C109.315 67.2196 109.331 67.5208 109.331 67.8221C109.365 68.1233 109.382 68.4078 109.382 68.6756C109.382 68.9099 109.399 69.1609 109.432 69.4287C109.432 69.663 109.432 69.8805 109.432 70.0814C109.466 70.2822 109.483 70.4663 109.483 70.6336C109.483 70.801 109.483 70.9683 109.483 71.1357C109.516 71.2696 109.533 71.37 109.533 71.4369V71.6879C109.533 71.7214 109.55 71.7381 109.583 71.7381V71.4369C109.583 71.37 109.583 71.2696 109.583 71.1357C109.617 70.9683 109.634 70.801 109.634 70.6336C109.634 70.4663 109.634 70.2822 109.634 70.0814C109.667 69.8805 109.684 69.663 109.684 69.4287C109.718 69.1609 109.734 68.9099 109.734 68.6756C109.734 68.4078 109.751 68.1233 109.785 67.8221C109.785 67.5208 109.785 67.2196 109.785 66.9184C109.818 66.6171 109.835 66.2824 109.835 65.9143C109.835 65.5796 109.835 65.2448 109.835 64.9101C109.869 64.542 109.886 64.1738 109.886 63.8056V62.7011C109.886 62.4333 109.902 62.2492 109.936 62.1488V56.8772ZM118.248 49.4969C118.248 49.0618 118.231 48.5263 118.197 47.8903C118.164 47.2544 118.046 46.6519 117.845 46.0829C117.643 45.5139 117.324 45.0286 116.888 44.6269C116.485 44.1918 115.88 43.9743 115.074 43.9743H113.261C112.891 44.0077 112.572 44.1583 112.304 44.4261C112.035 44.6939 111.901 45.0118 111.901 45.38V56.6764C111.901 57.0445 112.035 57.3625 112.304 57.6303C112.572 57.898 112.891 58.0319 113.261 58.0319H115.074C115.88 58.0319 116.485 57.8311 116.888 57.4295C117.324 57.0278 117.643 56.5425 117.845 55.9735C118.046 55.371 118.164 54.7685 118.197 54.1661C118.231 53.5301 118.248 52.9946 118.248 52.5595V49.4969ZM121.623 77.0098C121.623 77.0098 121.606 76.993 121.573 76.9596L121.522 76.9094C121.489 76.8424 121.455 76.7755 121.422 76.7085C121.422 76.6416 121.388 76.5747 121.321 76.5077C121.287 76.4073 121.254 76.3069 121.22 76.2065C121.186 76.0726 121.153 75.922 121.119 75.7546C121.052 75.4199 121.019 75.1019 121.019 74.8007C120.985 74.6334 120.968 74.466 120.968 74.2986C120.968 74.0978 120.968 73.8803 120.968 73.646V70.9851C120.968 70.7508 120.968 70.5165 120.968 70.2822C120.968 70.0479 120.985 69.7968 121.019 69.5291C121.019 69.2948 121.019 69.0605 121.019 68.8262C121.019 68.5919 121.002 68.3576 120.968 68.1233V67.4204C120.968 67.0857 120.951 66.8514 120.918 66.7176C120.918 66.4833 120.901 66.2657 120.867 66.0649C120.867 65.8306 120.851 65.613 120.817 65.4122C120.75 64.9436 120.683 64.542 120.616 64.2073C120.582 64.0399 120.548 63.8893 120.515 63.7554C120.481 63.588 120.431 63.4207 120.364 63.2533C120.296 63.086 120.246 62.9521 120.213 62.8517C120.179 62.7513 120.129 62.6509 120.061 62.5505C119.994 62.45 119.944 62.3664 119.91 62.2994C119.877 62.2325 119.843 62.1655 119.81 62.0986C119.776 62.0986 119.742 62.0819 119.709 62.0484C119.675 62.0484 119.658 62.0317 119.658 61.9982L119.709 62.0484C119.709 62.0819 119.726 62.1153 119.759 62.1488C119.759 62.1823 119.759 62.2158 119.759 62.2492C119.793 62.2492 119.81 62.2827 119.81 62.3496C119.843 62.3831 119.86 62.4166 119.86 62.45C119.86 62.4835 119.877 62.5337 119.91 62.6007C119.944 62.7345 119.994 62.9688 120.061 63.3035C120.095 63.4709 120.112 63.6383 120.112 63.8056C120.145 63.973 120.179 64.1403 120.213 64.3077C120.213 64.475 120.213 64.6591 120.213 64.8599C120.246 65.0273 120.263 65.2281 120.263 65.4624V71.6879C120.263 71.8218 120.263 71.939 120.263 72.0394C120.296 72.1398 120.313 72.2569 120.313 72.3908C120.313 72.6251 120.313 72.8594 120.313 73.0937C120.347 73.2945 120.38 73.4954 120.414 73.6962C120.448 73.897 120.464 74.0978 120.464 74.2986C120.498 74.4995 120.532 74.6836 120.565 74.8509C120.632 75.0517 120.683 75.2358 120.716 75.4032C120.75 75.5371 120.8 75.6877 120.867 75.855C120.935 76.0224 120.985 76.1563 121.019 76.2567C121.052 76.3571 121.102 76.4575 121.17 76.5579L121.27 76.6583C121.304 76.6918 121.321 76.7253 121.321 76.7587C121.321 76.7587 121.338 76.7755 121.371 76.8089L121.573 77.0098H121.623Z" fill="#3E3B47"/>
<path d="M140.002 52.5595C140.002 53.9652 139.666 55.2539 138.995 56.4253C138.323 57.5968 137.416 58.534 136.274 59.2369C137.416 59.9063 138.323 60.8435 138.995 62.0484C139.666 63.2199 140.002 64.5085 140.002 65.9143V69.1776C139.969 70.2487 139.75 71.2528 139.347 72.19C138.944 73.0937 138.39 73.897 137.685 74.5999C136.98 75.2693 136.157 75.8048 135.217 76.2065C134.276 76.6081 133.269 76.8089 132.194 76.8089H127.408C127.207 76.8089 127.022 76.7253 126.854 76.5579C126.686 76.3906 126.602 76.2065 126.602 76.0057C126.602 76.2065 126.518 76.3906 126.35 76.5579C126.216 76.7253 126.031 76.8089 125.796 76.8089H123.177C123.177 76.5077 123.227 76.2902 123.328 76.1563C123.462 76.0224 123.597 75.8885 123.731 75.7546C123.865 75.5873 123.983 75.3697 124.084 75.1019C124.218 74.8342 124.285 74.4158 124.285 73.8468V61.5965C124.184 60.559 123.714 59.8059 122.875 59.3373C123.244 59.103 123.714 58.9858 124.285 58.9858V44.6269C124.285 44.0579 124.218 43.6396 124.084 43.3718C123.983 43.104 123.865 42.9032 123.731 42.7693C123.597 42.602 123.462 42.4513 123.328 42.3175C123.227 42.1836 123.177 41.966 123.177 41.6648H125.847C126.048 41.6648 126.233 41.7485 126.401 41.9158C126.569 42.0497 126.653 42.2338 126.653 42.4681C126.653 41.9326 126.921 41.6648 127.459 41.6648H132.194C133.269 41.6648 134.276 41.8656 135.217 42.2673C136.157 42.6689 136.98 43.2212 137.685 43.9241C138.39 44.5935 138.944 45.3968 139.347 46.3339C139.75 47.2711 139.969 48.2585 140.002 49.2961V52.5595ZM127.005 56.8772C127.005 56.7098 126.989 56.5257 126.955 56.3249C126.955 56.1241 126.955 55.9233 126.955 55.7225V54.6179C126.921 53.8816 126.905 53.1787 126.905 52.5093C126.905 51.8399 126.888 51.2039 126.854 50.6014C126.821 50.3337 126.804 50.0659 126.804 49.7981C126.804 49.5304 126.787 49.2794 126.753 49.0451C126.753 48.7773 126.737 48.543 126.703 48.3422C126.703 48.1414 126.703 47.9573 126.703 47.7899C126.703 47.6226 126.686 47.4719 126.653 47.3381C126.653 47.2042 126.653 47.087 126.653 46.9866V46.7356C126.619 46.7356 126.602 46.7523 126.602 46.7858V46.9866C126.602 47.087 126.586 47.2042 126.552 47.3381C126.552 47.4719 126.552 47.6226 126.552 47.7899C126.552 47.9573 126.535 48.1414 126.502 48.3422C126.502 48.543 126.502 48.7773 126.502 49.0451C126.468 49.2794 126.451 49.5304 126.451 49.7981C126.451 50.0659 126.434 50.3337 126.401 50.6014C126.367 51.2039 126.35 51.8399 126.35 52.5093C126.35 53.1787 126.334 53.8816 126.3 54.6179V55.7225C126.3 55.9233 126.283 56.1241 126.25 56.3249C126.25 56.5257 126.25 56.7098 126.25 56.8772V61.5463C126.25 61.8141 126.266 62.0149 126.3 62.1488V63.8056C126.3 64.1738 126.3 64.542 126.3 64.9101C126.334 65.2448 126.35 65.5796 126.35 65.9143C126.35 66.2824 126.35 66.6171 126.35 66.9184C126.384 67.2196 126.401 67.5208 126.401 67.8221C126.434 68.1233 126.451 68.4078 126.451 68.6756C126.451 68.9099 126.468 69.1609 126.502 69.4287C126.502 69.663 126.502 69.8805 126.502 70.0814C126.535 70.2822 126.552 70.4663 126.552 70.6336C126.552 70.801 126.552 70.9683 126.552 71.1357C126.586 71.2696 126.602 71.37 126.602 71.4369V71.6879C126.602 71.7214 126.619 71.7381 126.653 71.7381V71.4369C126.653 71.37 126.653 71.2696 126.653 71.1357C126.686 70.9683 126.703 70.801 126.703 70.6336C126.703 70.4663 126.703 70.2822 126.703 70.0814C126.737 69.8805 126.753 69.663 126.753 69.4287C126.787 69.1609 126.804 68.9099 126.804 68.6756C126.804 68.4078 126.821 68.1233 126.854 67.8221C126.854 67.5208 126.854 67.2196 126.854 66.9184C126.888 66.6171 126.905 66.2824 126.905 65.9143C126.905 65.5796 126.905 65.2448 126.905 64.9101C126.938 64.542 126.955 64.1738 126.955 63.8056V62.7011C126.955 62.4333 126.972 62.2492 127.005 62.1488V56.8772ZM137.383 68.525C137.349 68.5919 137.332 68.6756 137.332 68.776V69.9307C137.299 70.0646 137.282 70.1985 137.282 70.3324C137.282 70.4328 137.282 70.5332 137.282 70.6336C137.282 70.7006 137.265 70.7508 137.232 70.7842C137.232 70.8177 137.232 70.8679 137.232 70.9349V71.2361C137.198 71.303 137.181 71.3867 137.181 71.4871C137.181 71.5541 137.164 71.621 137.131 71.6879C137.131 71.7549 137.114 71.8051 137.08 71.8386V71.939L137.03 72.0394C137.03 72.0394 137.064 72.0226 137.131 71.9892V71.939L137.181 71.8888C137.215 71.8553 137.232 71.8386 137.232 71.8386C137.232 71.8051 137.248 71.7716 137.282 71.7381C137.316 71.6712 137.349 71.6043 137.383 71.5373C137.416 71.4369 137.45 71.3532 137.483 71.2863C137.517 71.2194 137.534 71.1859 137.534 71.1859C137.534 71.1524 137.551 71.1022 137.584 71.0353C137.618 70.9683 137.635 70.9181 137.635 70.8846C137.635 70.8512 137.651 70.801 137.685 70.734C137.719 70.6671 137.735 70.6169 137.735 70.5834C137.735 70.5165 137.752 70.4495 137.786 70.3826C137.786 70.3156 137.786 70.2654 137.786 70.232C137.819 70.165 137.836 70.0981 137.836 70.0311C137.87 69.8973 137.886 69.7634 137.886 69.6295C137.92 69.4956 137.954 69.3617 137.987 69.2279C138.021 69.1274 138.038 68.9768 138.038 68.776C138.038 68.7091 138.038 68.6421 138.038 68.5752C138.071 68.5082 138.088 68.4413 138.088 68.3743V66.6171C138.088 66.4163 138.071 66.2657 138.038 66.1653V65.9645C138.038 65.8975 138.021 65.8641 137.987 65.8641C137.987 65.8306 137.987 65.7971 137.987 65.7636C137.987 65.5963 137.97 65.4624 137.937 65.362C137.937 65.2281 137.92 65.0942 137.886 64.9603C137.853 64.8934 137.836 64.8265 137.836 64.7595C137.836 64.6926 137.819 64.6256 137.786 64.5587C137.786 64.5252 137.769 64.5085 137.735 64.5085C137.735 64.475 137.735 64.4415 137.735 64.4081C137.735 64.3746 137.719 64.3579 137.685 64.3579C137.685 64.3244 137.685 64.2909 137.685 64.2575C137.651 64.1905 137.635 64.1403 137.635 64.1068C137.635 64.0734 137.618 64.0232 137.584 63.9562C137.551 63.8893 137.534 63.8391 137.534 63.8056C137.534 63.7721 137.517 63.7219 137.483 63.655C137.45 63.6215 137.433 63.588 137.433 63.5546C137.433 63.5211 137.416 63.4876 137.383 63.4542C137.316 63.3203 137.282 63.2533 137.282 63.2533C137.248 63.2199 137.232 63.2031 137.232 63.2031C137.232 63.1697 137.215 63.1362 137.181 63.1027C137.148 63.0693 137.131 63.0358 137.131 63.0023L137.03 62.9019C137.03 62.9019 137.047 62.9354 137.08 63.0023V63.1027C137.114 63.1362 137.131 63.2031 137.131 63.3035C137.131 63.337 137.131 63.3705 137.131 63.404C137.164 63.404 137.181 63.4374 137.181 63.5044C137.181 63.6048 137.198 63.6885 137.232 63.7554V64.0064C137.232 64.0734 137.232 64.1236 137.232 64.1571C137.265 64.1905 137.282 64.2407 137.282 64.3077C137.282 64.6089 137.299 64.8432 137.332 65.0106V65.8138C137.366 65.9812 137.383 66.249 137.383 66.6171V68.525ZM135.317 65.9143C135.317 65.4791 135.301 64.9436 135.267 64.3077C135.233 63.6717 135.116 63.0693 134.914 62.5003C134.713 61.9313 134.394 61.4459 133.957 61.0443C133.554 60.6092 132.95 60.3916 132.144 60.3916H130.33C129.961 60.4251 129.642 60.5757 129.373 60.8435C129.104 61.1112 128.97 61.4292 128.97 61.7974V73.0937C128.97 73.4619 129.104 73.7799 129.373 74.0476C129.642 74.3154 129.961 74.4493 130.33 74.4493H132.144C132.95 74.4493 133.554 74.2484 133.957 73.8468C134.394 73.4452 134.713 72.9598 134.914 72.3908C135.116 71.7884 135.233 71.1859 135.267 70.5834C135.301 69.9475 135.317 69.4119 135.317 68.9768V65.9143ZM135.317 49.4969C135.317 49.0618 135.301 48.5263 135.267 47.8903C135.233 47.2544 135.116 46.6519 134.914 46.0829C134.713 45.5139 134.394 45.0286 133.957 44.6269C133.554 44.1918 132.95 43.9743 132.144 43.9743H130.33C129.961 44.0077 129.642 44.1583 129.373 44.4261C129.104 44.6939 128.97 45.0118 128.97 45.38V56.6764C128.97 57.0445 129.104 57.3625 129.373 57.6303C129.642 57.898 129.961 58.0319 130.33 58.0319H132.144C132.95 58.0319 133.554 57.8311 133.957 57.4295C134.394 57.0278 134.713 56.5425 134.914 55.9735C135.116 55.371 135.233 54.7685 135.267 54.1661C135.301 53.5301 135.317 52.9946 135.317 52.5595V49.4969ZM137.483 54.4673C137.517 54.4004 137.534 54.3669 137.534 54.3669C137.534 54.3334 137.551 54.2832 137.584 54.2163C137.618 54.1493 137.635 54.0991 137.635 54.0657C137.635 53.9987 137.651 53.9318 137.685 53.8648C137.719 53.7979 137.735 53.7477 137.735 53.7142C137.735 53.6807 137.752 53.6305 137.786 53.5636C137.786 53.4967 137.786 53.4464 137.786 53.413C137.819 53.346 137.836 53.2791 137.836 53.2122C137.87 53.0783 137.886 52.9444 137.886 52.8105C137.92 52.6766 137.954 52.5427 137.987 52.4089C138.021 52.3084 138.038 52.1578 138.038 51.957C138.038 51.8901 138.038 51.8231 138.038 51.7562C138.071 51.6892 138.088 51.6223 138.088 51.5554V49.7981C138.088 49.5973 138.071 49.4467 138.038 49.3463V49.1455C138.038 49.0785 138.021 49.0451 137.987 49.0451C137.987 49.0116 137.987 48.9614 137.987 48.8944C137.987 48.7271 137.954 48.4761 137.886 48.1414C137.853 48.0744 137.836 48.0075 137.836 47.9405C137.836 47.8736 137.819 47.8066 137.786 47.7397C137.786 47.7062 137.769 47.6895 137.735 47.6895C137.735 47.656 137.735 47.6226 137.735 47.5891C137.735 47.5556 137.719 47.5389 137.685 47.5389C137.685 47.5054 137.685 47.4719 137.685 47.4385C137.651 47.3715 137.635 47.3213 137.635 47.2879C137.635 47.2544 137.618 47.2042 137.584 47.1372C137.551 47.0703 137.534 47.0201 137.534 46.9866C137.534 46.9531 137.517 46.9029 137.483 46.836C137.45 46.8025 137.433 46.7691 137.433 46.7356C137.433 46.7021 137.416 46.6686 137.383 46.6352C137.316 46.5013 137.282 46.4344 137.282 46.4344C137.248 46.4009 137.232 46.3841 137.232 46.3841C137.232 46.3507 137.215 46.3172 137.181 46.2837C137.148 46.2503 137.131 46.2168 137.131 46.1833C137.097 46.1499 137.08 46.1164 137.08 46.0829H137.03C137.03 46.0829 137.047 46.1164 137.08 46.1833V46.2837C137.114 46.3172 137.131 46.3841 137.131 46.4846C137.131 46.518 137.131 46.5515 137.131 46.585C137.164 46.585 137.181 46.6184 137.181 46.6854C137.181 46.7858 137.198 46.8695 137.232 46.9364V47.1874C137.232 47.2544 137.232 47.3046 137.232 47.3381C137.265 47.3715 137.282 47.4217 137.282 47.4887C137.282 47.7899 137.299 48.0242 137.332 48.1916V48.9949C137.366 49.1622 137.383 49.43 137.383 49.7981V51.706C137.349 51.7729 137.332 51.8566 137.332 51.957V53.1117C137.299 53.2456 137.282 53.3795 137.282 53.5134C137.282 53.6138 137.282 53.7142 137.282 53.8146C137.282 53.8816 137.265 53.9318 137.232 53.9652C137.232 53.9987 137.232 54.0489 137.232 54.1159V54.4171C137.198 54.484 137.181 54.5677 137.181 54.6681C137.181 54.7351 137.164 54.802 137.131 54.8689C137.131 54.9359 137.114 54.9861 137.08 55.0196V55.12L137.03 55.2204C137.03 55.2204 137.064 55.2037 137.131 55.1702V55.12L137.181 55.0698C137.215 55.0363 137.232 55.0196 137.232 55.0196C137.232 54.9861 137.248 54.9526 137.282 54.9192C137.316 54.8522 137.349 54.7853 137.383 54.7183C137.416 54.6179 137.45 54.5342 137.483 54.4673Z" fill="#3E3B47"/>
<path d="M157.172 73.7464C157.172 74.3489 157.223 74.8007 157.324 75.1019C157.458 75.3697 157.592 75.5873 157.727 75.7546C157.861 75.8885 157.978 76.0224 158.079 76.1563C158.214 76.2902 158.281 76.5077 158.281 76.8089H144.579C144.377 76.8089 144.192 76.7253 144.024 76.5579C143.856 76.3906 143.773 76.2065 143.773 76.0057C143.773 76.2065 143.689 76.3906 143.521 76.5579C143.386 76.7253 143.202 76.8089 142.967 76.8089H140.347C140.347 76.5077 140.397 76.2902 140.498 76.1563C140.632 76.0224 140.767 75.8885 140.901 75.7546C141.035 75.5873 141.153 75.3697 141.254 75.1019C141.388 74.8342 141.455 74.4158 141.455 73.8468V61.5965C141.354 60.559 140.884 59.8059 140.045 59.3373C140.414 59.103 140.884 58.9858 141.455 58.9858V44.6269C141.455 44.0579 141.388 43.6396 141.254 43.3718C141.153 43.104 141.035 42.9032 140.901 42.7693C140.767 42.602 140.632 42.4513 140.498 42.3175C140.397 42.1836 140.347 41.966 140.347 41.6648H143.017C143.218 41.6648 143.403 41.7485 143.571 41.9158C143.739 42.0497 143.823 42.2338 143.823 42.4681C143.823 41.9326 144.092 41.6648 144.629 41.6648H158.281C158.281 41.966 158.214 42.1836 158.079 42.3175C157.978 42.4513 157.861 42.602 157.727 42.7693C157.592 42.9032 157.458 43.1208 157.324 43.422C157.223 43.6898 157.172 44.1249 157.172 44.7273V51.4047C155.997 51.4047 155.09 51.1872 154.452 50.7521C153.848 50.2835 153.394 49.7647 153.092 49.1957C152.723 48.5597 152.521 47.8066 152.487 46.9364V45.38C152.487 45.0118 152.353 44.6939 152.084 44.4261C151.816 44.1583 151.497 44.0077 151.127 43.9743H147.5C147.131 44.0077 146.812 44.1583 146.543 44.4261C146.275 44.6939 146.14 45.0118 146.14 45.38V56.6764C146.14 57.0445 146.275 57.3625 146.543 57.6303C146.812 57.898 147.131 58.0319 147.5 58.0319H147.853C148.222 58.0319 148.525 57.898 148.76 57.6303C149.028 57.3625 149.163 57.0445 149.163 56.6764V56.6262C149.196 56.1241 149.331 55.689 149.566 55.3208C149.767 54.9861 150.069 54.6849 150.472 54.4171C150.875 54.1493 151.463 54.0154 152.236 54.0154V64.4081C151.463 64.4081 150.875 64.2742 150.472 64.0064C150.069 63.7387 149.767 63.4374 149.566 63.1027C149.331 62.7345 149.196 62.2994 149.163 61.7974C149.163 61.4292 149.028 61.1112 148.76 60.8435C148.525 60.5757 148.222 60.4251 147.853 60.3916H147.5C147.131 60.4251 146.812 60.5757 146.543 60.8435C146.275 61.1112 146.14 61.4292 146.14 61.7974V73.0937C146.14 73.4619 146.275 73.7799 146.543 74.0476C146.812 74.3154 147.131 74.4493 147.5 74.4493H151.127C151.497 74.4493 151.816 74.3154 152.084 74.0476C152.353 73.7799 152.487 73.4619 152.487 73.0937V71.4871C152.521 70.6504 152.723 69.914 153.092 69.2781C153.394 68.7091 153.848 68.1903 154.452 67.7217C155.09 67.2531 155.997 67.0188 157.172 67.0188V73.7464ZM144.176 56.8772C144.176 56.7098 144.159 56.5257 144.125 56.3249C144.125 56.1241 144.125 55.9233 144.125 55.7225V54.6179C144.092 53.8816 144.075 53.1787 144.075 52.5093C144.075 51.8399 144.058 51.2039 144.024 50.6014C143.991 50.3337 143.974 50.0659 143.974 49.7981C143.974 49.5304 143.957 49.2794 143.924 49.0451C143.924 48.7773 143.907 48.543 143.873 48.3422C143.873 48.1414 143.873 47.9573 143.873 47.7899C143.873 47.6226 143.856 47.4719 143.823 47.3381C143.823 47.2042 143.823 47.087 143.823 46.9866V46.7356C143.789 46.7356 143.773 46.7523 143.773 46.7858V46.9866C143.773 47.087 143.756 47.2042 143.722 47.3381C143.722 47.4719 143.722 47.6226 143.722 47.7899C143.722 47.9573 143.705 48.1414 143.672 48.3422C143.672 48.543 143.672 48.7773 143.672 49.0451C143.638 49.2794 143.621 49.5304 143.621 49.7981C143.621 50.0659 143.605 50.3337 143.571 50.6014C143.537 51.2039 143.521 51.8399 143.521 52.5093C143.521 53.1787 143.504 53.8816 143.47 54.6179V55.7225C143.47 55.9233 143.453 56.1241 143.42 56.3249C143.42 56.5257 143.42 56.7098 143.42 56.8772V61.5463C143.42 61.8141 143.437 62.0149 143.47 62.1488V63.8056C143.47 64.1738 143.47 64.542 143.47 64.9101C143.504 65.2448 143.521 65.5796 143.521 65.9143C143.521 66.2824 143.521 66.6171 143.521 66.9184C143.554 67.2196 143.571 67.5208 143.571 67.8221C143.605 68.1233 143.621 68.4078 143.621 68.6756C143.621 68.9099 143.638 69.1609 143.672 69.4287C143.672 69.663 143.672 69.8805 143.672 70.0814C143.705 70.2822 143.722 70.4663 143.722 70.6336C143.722 70.801 143.722 70.9683 143.722 71.1357C143.756 71.2696 143.773 71.37 143.773 71.4369V71.6879C143.773 71.7214 143.789 71.7381 143.823 71.7381V71.4369C143.823 71.37 143.823 71.2696 143.823 71.1357C143.856 70.9683 143.873 70.801 143.873 70.6336C143.873 70.4663 143.873 70.2822 143.873 70.0814C143.907 69.8805 143.924 69.663 143.924 69.4287C143.957 69.1609 143.974 68.9099 143.974 68.6756C143.974 68.4078 143.991 68.1233 144.024 67.8221C144.024 67.5208 144.024 67.2196 144.024 66.9184C144.058 66.6171 144.075 66.2824 144.075 65.9143C144.075 65.5796 144.075 65.2448 144.075 64.9101C144.108 64.542 144.125 64.1738 144.125 63.8056V62.7011C144.125 62.4333 144.142 62.2492 144.176 62.1488V56.8772Z" fill="#3E3B47"/>
<path d="M177.438 78.9176C177.807 78.9845 178.059 79.1017 178.193 79.269C178.361 79.4364 178.479 79.6037 178.546 79.7711C178.613 79.9719 178.647 80.1895 178.647 80.4238C177.572 80.4238 176.564 80.2899 175.624 80.0221C174.684 79.7544 173.844 79.3192 173.105 78.7168C172.4 78.1143 171.829 77.3277 171.392 76.3571C170.989 75.3864 170.788 74.1982 170.788 72.7925V65.9143C170.788 65.4791 170.771 64.9436 170.738 64.3077C170.704 63.6717 170.586 63.0693 170.385 62.5003C170.183 61.9313 169.864 61.4459 169.428 61.0443C169.025 60.6092 168.42 60.3916 167.614 60.3916H165.549C165.247 60.4585 164.978 60.6259 164.743 60.8937C164.541 61.128 164.441 61.4125 164.441 61.7472V73.7464C164.441 74.3489 164.491 74.8007 164.592 75.1019C164.726 75.3697 164.86 75.5873 164.995 75.7546C165.129 75.8885 165.247 76.0224 165.347 76.1563C165.482 76.2902 165.549 76.5077 165.549 76.8089H162.879C162.678 76.8089 162.493 76.7253 162.325 76.5579C162.157 76.3906 162.073 76.2065 162.073 76.0057C162.073 76.2065 161.989 76.3906 161.821 76.5579C161.687 76.7253 161.502 76.8089 161.267 76.8089H158.647C158.647 76.5077 158.698 76.2902 158.799 76.1563C158.933 76.0224 159.067 75.8885 159.202 75.7546C159.336 75.5873 159.453 75.3697 159.554 75.1019C159.689 74.8342 159.756 74.4158 159.756 73.8468V61.5965C159.655 60.559 159.185 59.8059 158.345 59.3373C158.715 59.103 159.185 58.9858 159.756 58.9858V44.6269C159.756 44.0579 159.689 43.6396 159.554 43.3718C159.453 43.104 159.336 42.9032 159.202 42.7693C159.067 42.602 158.933 42.4513 158.799 42.3175C158.698 42.1836 158.647 41.966 158.647 41.6648H161.317C161.519 41.6648 161.704 41.7485 161.872 41.9158C162.039 42.0497 162.123 42.2338 162.123 42.4681C162.123 41.9326 162.392 41.6648 162.929 41.6648H167.665C168.739 41.6648 169.747 41.8656 170.687 42.2673C171.628 42.6689 172.45 43.2212 173.156 43.9241C173.861 44.5935 174.415 45.3968 174.818 46.3339C175.221 47.2711 175.439 48.2585 175.473 49.2961V52.5595C175.473 53.9652 175.137 55.2539 174.465 56.4253C173.794 57.5968 172.887 58.534 171.745 59.2369C172.887 59.9063 173.794 60.8435 174.465 62.0484C175.137 63.2199 175.473 64.5085 175.473 65.9143V72.5916C175.473 73.2945 175.473 74.0142 175.473 74.7505C175.507 75.4534 175.59 76.1061 175.725 76.7085C175.859 77.2775 176.061 77.7629 176.329 78.1645C176.598 78.5662 176.967 78.8172 177.438 78.9176ZM172.853 51.706C172.82 51.7729 172.803 51.8566 172.803 51.957V53.1117C172.769 53.2456 172.753 53.3795 172.753 53.5134C172.753 53.6138 172.753 53.7142 172.753 53.8146C172.753 53.8816 172.736 53.9318 172.702 53.9652C172.702 53.9987 172.702 54.0489 172.702 54.1159V54.4171C172.669 54.484 172.652 54.5677 172.652 54.6681C172.652 54.7351 172.635 54.802 172.602 54.8689C172.602 54.9359 172.585 54.9861 172.551 55.0196V55.12L172.501 55.2204C172.501 55.2204 172.534 55.2037 172.602 55.1702V55.12L172.652 55.0698C172.685 55.0363 172.702 55.0196 172.702 55.0196C172.702 54.9861 172.719 54.9526 172.753 54.9192C172.786 54.8522 172.82 54.7853 172.853 54.7183C172.887 54.6179 172.921 54.5342 172.954 54.4673C172.988 54.4004 173.005 54.3669 173.005 54.3669C173.005 54.3334 173.021 54.2832 173.055 54.2163C173.088 54.1493 173.105 54.0991 173.105 54.0657C173.105 53.9987 173.122 53.9318 173.156 53.8648C173.189 53.7979 173.206 53.7477 173.206 53.7142C173.206 53.6807 173.223 53.6305 173.256 53.5636C173.256 53.4967 173.256 53.4464 173.256 53.413C173.29 53.346 173.307 53.2791 173.307 53.2122C173.34 53.0783 173.357 52.9444 173.357 52.8105C173.391 52.6766 173.424 52.5427 173.458 52.4089C173.491 52.3084 173.508 52.1578 173.508 51.957C173.508 51.8901 173.508 51.8231 173.508 51.7562C173.542 51.6892 173.559 51.6223 173.559 51.5554V49.7981C173.559 49.5973 173.542 49.4467 173.508 49.3463V49.1455C173.508 49.0785 173.491 49.0451 173.458 49.0451C173.458 49.0116 173.458 48.9614 173.458 48.8944C173.458 48.7271 173.424 48.4761 173.357 48.1414C173.324 48.0744 173.307 48.0075 173.307 47.9405C173.307 47.8736 173.29 47.8066 173.256 47.7397C173.256 47.7062 173.24 47.6895 173.206 47.6895C173.206 47.656 173.206 47.6226 173.206 47.5891C173.206 47.5556 173.189 47.5389 173.156 47.5389C173.156 47.5054 173.156 47.4719 173.156 47.4385C173.122 47.3715 173.105 47.3213 173.105 47.2879C173.105 47.2544 173.088 47.2042 173.055 47.1372C173.021 47.0703 173.005 47.0201 173.005 46.9866C173.005 46.9531 172.988 46.9029 172.954 46.836C172.921 46.8025 172.904 46.7691 172.904 46.7356C172.904 46.7021 172.887 46.6686 172.853 46.6352C172.786 46.5013 172.753 46.4344 172.753 46.4344C172.719 46.4009 172.702 46.3841 172.702 46.3841C172.702 46.3507 172.685 46.3172 172.652 46.2837C172.618 46.2503 172.602 46.2168 172.602 46.1833C172.568 46.1499 172.551 46.1164 172.551 46.0829H172.501C172.501 46.0829 172.518 46.1164 172.551 46.1833V46.2837C172.585 46.3172 172.602 46.3841 172.602 46.4846C172.602 46.518 172.602 46.5515 172.602 46.585C172.635 46.585 172.652 46.6184 172.652 46.6854C172.652 46.7858 172.669 46.8695 172.702 46.9364V47.1874C172.702 47.2544 172.702 47.3046 172.702 47.3381C172.736 47.3715 172.753 47.4217 172.753 47.4887C172.753 47.7899 172.769 48.0242 172.803 48.1916V48.9949C172.837 49.1622 172.853 49.43 172.853 49.7981V51.706ZM162.476 56.8772C162.476 56.7098 162.459 56.5257 162.426 56.3249C162.426 56.1241 162.426 55.9233 162.426 55.7225V54.6179C162.392 53.8816 162.375 53.1787 162.375 52.5093C162.375 51.8399 162.358 51.2039 162.325 50.6014C162.291 50.3337 162.275 50.0659 162.275 49.7981C162.275 49.5304 162.258 49.2794 162.224 49.0451C162.224 48.7773 162.207 48.543 162.174 48.3422C162.174 48.1414 162.174 47.9573 162.174 47.7899C162.174 47.6226 162.157 47.4719 162.123 47.3381C162.123 47.2042 162.123 47.087 162.123 46.9866V46.7356C162.09 46.7356 162.073 46.7523 162.073 46.7858V46.9866C162.073 47.087 162.056 47.2042 162.023 47.3381C162.023 47.4719 162.023 47.6226 162.023 47.7899C162.023 47.9573 162.006 48.1414 161.972 48.3422C161.972 48.543 161.972 48.7773 161.972 49.0451C161.939 49.2794 161.922 49.5304 161.922 49.7981C161.922 50.0659 161.905 50.3337 161.872 50.6014C161.838 51.2039 161.821 51.8399 161.821 52.5093C161.821 53.1787 161.804 53.8816 161.771 54.6179V55.7225C161.771 55.9233 161.754 56.1241 161.72 56.3249C161.72 56.5257 161.72 56.7098 161.72 56.8772V61.5463C161.72 61.8141 161.737 62.0149 161.771 62.1488V63.8056C161.771 64.1738 161.771 64.542 161.771 64.9101C161.804 65.2448 161.821 65.5796 161.821 65.9143C161.821 66.2824 161.821 66.6171 161.821 66.9184C161.855 67.2196 161.872 67.5208 161.872 67.8221C161.905 68.1233 161.922 68.4078 161.922 68.6756C161.922 68.9099 161.939 69.1609 161.972 69.4287C161.972 69.663 161.972 69.8805 161.972 70.0814C162.006 70.2822 162.023 70.4663 162.023 70.6336C162.023 70.801 162.023 70.9683 162.023 71.1357C162.056 71.2696 162.073 71.37 162.073 71.4369V71.6879C162.073 71.7214 162.09 71.7381 162.123 71.7381V71.4369C162.123 71.37 162.123 71.2696 162.123 71.1357C162.157 70.9683 162.174 70.801 162.174 70.6336C162.174 70.4663 162.174 70.2822 162.174 70.0814C162.207 69.8805 162.224 69.663 162.224 69.4287C162.258 69.1609 162.275 68.9099 162.275 68.6756C162.275 68.4078 162.291 68.1233 162.325 67.8221C162.325 67.5208 162.325 67.2196 162.325 66.9184C162.358 66.6171 162.375 66.2824 162.375 65.9143C162.375 65.5796 162.375 65.2448 162.375 64.9101C162.409 64.542 162.426 64.1738 162.426 63.8056V62.7011C162.426 62.4333 162.442 62.2492 162.476 62.1488V56.8772ZM170.788 49.4969C170.788 49.0618 170.771 48.5263 170.738 47.8903C170.704 47.2544 170.586 46.6519 170.385 46.0829C170.183 45.5139 169.864 45.0286 169.428 44.6269C169.025 44.1918 168.42 43.9743 167.614 43.9743H165.801C165.431 44.0077 165.112 44.1583 164.844 44.4261C164.575 44.6939 164.441 45.0118 164.441 45.38V56.6764C164.441 57.0445 164.575 57.3625 164.844 57.6303C165.112 57.898 165.431 58.0319 165.801 58.0319H167.614C168.42 58.0319 169.025 57.8311 169.428 57.4295C169.864 57.0278 170.183 56.5425 170.385 55.9735C170.586 55.371 170.704 54.7685 170.738 54.1661C170.771 53.5301 170.788 52.9946 170.788 52.5595V49.4969ZM174.163 77.0098C174.163 77.0098 174.146 76.993 174.113 76.9596L174.062 76.9094C174.029 76.8424 173.995 76.7755 173.962 76.7085C173.962 76.6416 173.928 76.5747 173.861 76.5077C173.827 76.4073 173.794 76.3069 173.76 76.2065C173.727 76.0726 173.693 75.922 173.659 75.7546C173.592 75.4199 173.559 75.1019 173.559 74.8007C173.525 74.6334 173.508 74.466 173.508 74.2986C173.508 74.0978 173.508 73.8803 173.508 73.646V70.9851C173.508 70.7508 173.508 70.5165 173.508 70.2822C173.508 70.0479 173.525 69.7968 173.559 69.5291C173.559 69.2948 173.559 69.0605 173.559 68.8262C173.559 68.5919 173.542 68.3576 173.508 68.1233V67.4204C173.508 67.0857 173.491 66.8514 173.458 66.7176C173.458 66.4833 173.441 66.2657 173.408 66.0649C173.408 65.8306 173.391 65.613 173.357 65.4122C173.29 64.9436 173.223 64.542 173.156 64.2073C173.122 64.0399 173.088 63.8893 173.055 63.7554C173.021 63.588 172.971 63.4207 172.904 63.2533C172.837 63.086 172.786 62.9521 172.753 62.8517C172.719 62.7513 172.669 62.6509 172.602 62.5505C172.534 62.45 172.484 62.3664 172.45 62.2994C172.417 62.2325 172.383 62.1655 172.35 62.0986C172.316 62.0986 172.282 62.0819 172.249 62.0484C172.215 62.0484 172.198 62.0317 172.198 61.9982L172.249 62.0484C172.249 62.0819 172.266 62.1153 172.299 62.1488C172.299 62.1823 172.299 62.2158 172.299 62.2492C172.333 62.2492 172.35 62.2827 172.35 62.3496C172.383 62.3831 172.4 62.4166 172.4 62.45C172.4 62.4835 172.417 62.5337 172.45 62.6007C172.484 62.7345 172.534 62.9688 172.602 63.3035C172.635 63.4709 172.652 63.6383 172.652 63.8056C172.685 63.973 172.719 64.1403 172.753 64.3077C172.753 64.475 172.753 64.6591 172.753 64.8599C172.786 65.0273 172.803 65.2281 172.803 65.4624V71.6879C172.803 71.8218 172.803 71.939 172.803 72.0394C172.837 72.1398 172.853 72.2569 172.853 72.3908C172.853 72.6251 172.853 72.8594 172.853 73.0937C172.887 73.2945 172.921 73.4954 172.954 73.6962C172.988 73.897 173.005 74.0978 173.005 74.2986C173.038 74.4995 173.072 74.6836 173.105 74.8509C173.172 75.0517 173.223 75.2358 173.256 75.4032C173.29 75.5371 173.34 75.6877 173.408 75.855C173.475 76.0224 173.525 76.1563 173.559 76.2567C173.592 76.3571 173.643 76.4575 173.71 76.5579L173.811 76.6583C173.844 76.6918 173.861 76.7253 173.861 76.7587C173.861 76.7587 173.878 76.7755 173.911 76.8089L174.113 77.0098H174.163Z" fill="#3E3B47"/>
<ellipse rx="2.69869" ry="2.6896" transform="matrix(1 0 0 -1 188.908 60.0257)" fill="#999591"/>
<ellipse rx="2.69869" ry="2.6896" transform="matrix(1 0 0 -1 17.0918 60.0257)" fill="#999591"/>
</svg>
