<?xml version="1.0" encoding="UTF-8"?>
<svg width="32px" height="24px" viewBox="0 0 32 24" version="1.1" xmlns="http://www.w3.org/2000/svg" xmlns:xlink="http://www.w3.org/1999/xlink">
    <!-- Generator: Sketch 55.2 (78181) - https://sketchapp.com -->
    <title>logo</title>
    <desc>Created with Sketch.</desc>
    <g id="Web" stroke="none" stroke-width="1" fill="none" fill-rule="evenodd">
        <g id="Dashboard" transform="translate(-250.000000, -20.000000)" fill="#7159C1" fill-rule="nonzero">
            <g id="Group-13">
                <g id="Group-12" transform="translate(250.000000, 20.000000)">
                    <g id="logo">
                        <path d="M14.8444444,3.69705882 C14.8444444,2.10882353 14.1333333,0.167647059 10.8444444,0.167647059 C9.24444444,0.167647059 8.62222222,0.608823529 7.82222222,1.13823529 C6.93333333,1.75588235 5.77777778,2.55 3.46666667,2.55 C1.95555556,2.55 0.888888889,2.28529412 0,1.93235294 C0.977777778,4.31470588 3.37777778,7.31470588 9.51111111,7.31470588 C12.7111111,7.22647059 14.8444444,5.37352941 14.8444444,3.69705882 Z" id="Path"></path>
                        <path d="M21.9555556,16.6676471 C18.8444444,16.6676471 16.9777778,15.6970588 16,14.9029412 C15.0222222,15.6970588 13.1555556,16.6676471 10.0444444,16.6676471 C5.15555556,16.6676471 3.46666667,10.2264706 3.02222222,8.28529412 C2.66666667,8.10882353 2.4,8.02058824 2.04444444,7.84411765 L2.48888889,11.9029412 C3.28888889,18.7852941 11.8222222,23.3735294 16,23.7264706 C19.9111111,23.2852941 28.4444444,18.7852941 29.3333333,11.9029412 L29.7777778,7.75588235 C29.5111111,7.93235294 29.1555556,8.10882353 28.8,8.28529412 C28.5333333,10.3147059 26.8444444,16.6676471 21.9555556,16.6676471 Z" id="Path"></path>
                        <path d="M24.2666667,1.13823529 C23.4666667,0.608823529 22.7555556,0.167647059 21.2444444,0.167647059 C17.9555556,0.167647059 17.2444444,2.10882353 17.2444444,3.69705882 C17.2444444,5.37352941 19.3777778,7.22647059 22.4888889,7.22647059 C28.6222222,7.22647059 31.0222222,4.22647059 32,1.84411765 C31.1111111,2.19705882 30.0444444,2.46176471 28.6222222,2.46176471 C26.3111111,2.55 25.1555556,1.75588235 24.2666667,1.13823529 Z" id="Path"></path>
                    </g>
                </g>
            </g>
        </g>
    </g>
</svg>